<svg width="180" height="45" viewBox="0 0 180 45" fill="none" xmlns="http://www.w3.org/2000/svg">
<path d="M38.13 37.84C35.218 37.84 32.978 37.336 31.41 36.328C29.842 35.292 29.058 33.78 29.058 31.792C29.058 30.784 29.394 29.958 30.066 29.314C30.766 28.642 31.662 28.306 32.754 28.306C33.482 28.334 33.986 28.516 34.266 28.852C34.574 29.188 34.728 29.44 34.728 29.608C34.728 29.664 34.602 29.762 34.35 29.902C34.098 30.014 33.846 30.238 33.594 30.574C33.342 30.882 33.216 31.372 33.216 32.044C33.216 33.304 33.608 34.312 34.392 35.068C35.176 35.796 36.422 36.16 38.13 36.16C39.334 36.16 40.356 35.936 41.196 35.488C42.064 35.012 42.722 34.41 43.17 33.682C43.618 32.926 43.842 32.156 43.842 31.372C43.842 30.196 43.506 29.23 42.834 28.474C42.162 27.718 41.28 27.074 40.188 26.542C39.124 25.982 37.99 25.45 36.786 24.946C35.582 24.442 34.434 23.868 33.342 23.224C32.278 22.58 31.396 21.782 30.696 20.83C29.996 19.85 29.632 18.632 29.604 17.176C29.576 15.412 29.954 13.984 30.738 12.892C31.522 11.772 32.614 10.96 34.014 10.456C35.414 9.924 36.968 9.658 38.676 9.658C39.936 9.658 41.168 9.84 42.372 10.204C43.604 10.568 44.612 11.142 45.396 11.926C46.208 12.682 46.614 13.69 46.614 14.95C46.614 15.958 46.264 16.798 45.564 17.47C44.892 18.114 44.01 18.436 42.918 18.436C42.19 18.38 41.672 18.198 41.364 17.89C41.084 17.554 40.944 17.302 40.944 17.134C40.944 17.05 41.112 16.952 41.448 16.84C41.784 16.7 42.12 16.476 42.456 16.168C42.792 15.832 42.96 15.342 42.96 14.698C42.96 13.634 42.554 12.822 41.742 12.262C40.93 11.674 39.922 11.38 38.718 11.38C36.898 11.38 35.568 11.814 34.728 12.682C33.916 13.522 33.51 14.474 33.51 15.538C33.51 16.574 33.79 17.414 34.35 18.058C34.91 18.702 35.75 19.332 36.87 19.948C38.13 20.62 39.404 21.25 40.692 21.838C41.98 22.398 43.17 23.028 44.262 23.728C45.382 24.428 46.278 25.31 46.95 26.374C47.622 27.41 47.958 28.754 47.958 30.406C47.958 31.834 47.51 33.108 46.614 34.228C45.746 35.348 44.57 36.23 43.086 36.874C41.602 37.518 39.95 37.84 38.13 37.84ZM59.3925 37.504C57.4885 37.504 55.9765 36.93 54.8565 35.782C53.7365 34.634 53.1765 33.122 53.1765 31.246V23.476C53.1765 22.972 53.1485 22.51 53.0925 22.09C53.0645 21.642 52.9105 21.292 52.6305 21.04C52.3505 20.76 51.8185 20.62 51.0345 20.62C50.7825 20.62 50.5445 20.592 50.3205 20.536C50.1245 20.452 50.0265 20.2 50.0265 19.78C50.0265 19.36 50.2505 19.108 50.6985 19.024C51.9865 18.828 52.9665 18.632 53.6385 18.436C54.3385 18.24 54.8705 18.072 55.2345 17.932C55.5985 17.792 55.9205 17.708 56.2005 17.68C56.4245 17.652 56.6065 17.694 56.7465 17.806C56.9145 17.918 56.9985 18.142 56.9985 18.478V31.204C56.9985 32.128 57.1945 32.884 57.5865 33.472C58.0065 34.06 58.5245 34.494 59.1405 34.774C59.7565 35.054 60.3865 35.194 61.0305 35.194C62.0105 35.194 62.8645 35.026 63.5925 34.69C64.3205 34.326 64.9085 33.92 65.3565 33.472C65.8045 32.996 66.0985 32.604 66.2385 32.296V23.476C66.2385 22.972 66.2105 22.51 66.1545 22.09C66.1265 21.642 65.9725 21.292 65.6925 21.04C65.4125 20.76 64.8805 20.62 64.0965 20.62C63.8445 20.62 63.6065 20.592 63.3825 20.536C63.1865 20.452 63.0885 20.2 63.0885 19.78C63.0885 19.36 63.3125 19.108 63.7605 19.024C65.0485 18.828 66.0285 18.632 66.7005 18.436C67.4005 18.24 67.9325 18.072 68.2965 17.932C68.6605 17.792 68.9825 17.708 69.2625 17.68C69.4865 17.652 69.6685 17.694 69.8085 17.806C69.9765 17.918 70.0605 18.142 70.0605 18.478V33.01C70.0605 34.662 71.1665 35.488 73.3785 35.488C73.6865 35.488 73.8825 35.572 73.9665 35.74C74.0505 35.908 74.0925 36.09 74.0925 36.286C74.0925 36.678 73.8545 36.916 73.3785 37L66.6165 37.462C66.4205 37.462 66.3085 37.378 66.2805 37.21C66.2525 37.042 66.2385 36.846 66.2385 36.622V34.27H66.1545C65.6225 34.774 65.0485 35.278 64.4325 35.782C63.8445 36.286 63.1445 36.692 62.3325 37C61.5485 37.336 60.5685 37.504 59.3925 37.504ZM76.39 37.126C76.194 37.126 76.026 37.042 75.886 36.874C75.774 36.678 75.718 36.482 75.718 36.286C75.774 35.866 75.886 35.642 76.054 35.614C76.222 35.558 76.446 35.53 76.726 35.53C77.51 35.53 78.042 35.404 78.322 35.152C78.602 34.872 78.756 34.508 78.784 34.06C78.84 33.612 78.868 33.15 78.868 32.674V23.056C78.868 22.552 78.84 22.09 78.784 21.67C78.756 21.222 78.602 20.872 78.322 20.62C78.042 20.34 77.51 20.2 76.726 20.2C76.474 20.2 76.236 20.172 76.012 20.116C75.816 20.032 75.718 19.78 75.718 19.36C75.718 18.94 75.942 18.688 76.39 18.604C77.678 18.408 78.658 18.212 79.33 18.016C80.03 17.82 80.548 17.652 80.884 17.512C81.248 17.372 81.57 17.288 81.85 17.26C82.074 17.232 82.256 17.274 82.396 17.386C82.564 17.498 82.648 17.722 82.648 18.058V20.662H82.774C83.726 19.738 84.706 18.982 85.714 18.394C86.722 17.778 87.646 17.47 88.486 17.47C89.466 17.47 90.208 17.834 90.712 18.562C91.244 19.29 91.51 20.06 91.51 20.872C91.51 21.572 91.286 22.258 90.838 22.93C90.39 23.574 89.718 23.896 88.822 23.896C88.374 23.896 88.01 23.812 87.73 23.644C87.478 23.448 87.338 23.308 87.31 23.224C87.31 23.168 87.436 23 87.688 22.72C87.968 22.44 88.108 22.09 88.108 21.67C88.108 21.166 87.968 20.76 87.688 20.452C87.436 20.144 87.086 19.99 86.638 19.99C86.162 19.99 85.546 20.228 84.79 20.704C84.062 21.18 83.362 21.754 82.69 22.426V32.674C82.69 33.15 82.704 33.612 82.732 34.06C82.788 34.508 82.956 34.872 83.236 35.152C83.544 35.404 84.09 35.53 84.874 35.53C85.126 35.53 85.336 35.558 85.504 35.614C85.7 35.642 85.812 35.866 85.84 36.286C85.84 36.482 85.784 36.678 85.672 36.874C85.56 37.042 85.392 37.126 85.168 37.126C84.356 37.07 83.6 37.028 82.9 37C82.228 37 81.514 37 80.758 37C80.002 37 79.288 37 78.616 37C77.944 37.028 77.202 37.07 76.39 37.126ZM94.6098 37.126C94.3858 37.126 94.2178 37.042 94.1058 36.874C93.9938 36.678 93.9378 36.482 93.9378 36.286C93.9658 35.866 94.0638 35.642 94.2318 35.614C94.3998 35.558 94.6238 35.53 94.9038 35.53C95.6878 35.53 96.2198 35.404 96.4998 35.152C96.8078 34.872 96.9758 34.508 97.0038 34.06C97.0318 33.612 97.0458 33.15 97.0458 32.674V19.612H94.2318C94.0078 19.612 93.8258 19.528 93.6858 19.36C93.5738 19.164 93.5178 18.968 93.5178 18.772C93.5458 18.324 93.6438 18.086 93.8118 18.058C94.0078 18.002 94.2458 17.974 94.5258 17.974H97.0458V16.21C97.0458 14.334 97.3398 12.668 97.9278 11.212C98.5158 9.756 99.3838 8.594 100.532 7.726C101.708 6.858 103.136 6.41 104.816 6.382C105.684 6.382 106.524 6.55 107.336 6.886C108.148 7.222 108.82 7.698 109.352 8.314C109.884 8.902 110.15 9.63 110.15 10.498C110.15 11.282 109.912 12.01 109.436 12.682C108.96 13.326 108.274 13.648 107.378 13.648C106.79 13.648 106.328 13.494 105.992 13.186C105.684 12.878 105.53 12.668 105.53 12.556C105.53 12.472 105.642 12.346 105.866 12.178C106.118 11.982 106.356 11.702 106.58 11.338C106.832 10.974 106.958 10.526 106.958 9.994C106.958 9.378 106.72 8.86 106.244 8.44C105.796 7.992 105.222 7.768 104.522 7.768C103.598 7.768 102.884 8.048 102.38 8.608C101.876 9.168 101.526 9.868 101.33 10.708C101.134 11.548 101.008 12.402 100.952 13.27C100.924 14.138 100.91 14.866 100.91 15.454V17.974H105.026C105.306 17.974 105.544 18.002 105.74 18.058C105.936 18.086 106.048 18.324 106.076 18.772C106.076 18.968 106.006 19.164 105.866 19.36C105.754 19.528 105.586 19.612 105.362 19.612H100.91V32.674C100.91 33.486 100.966 34.102 101.078 34.522C101.218 34.942 101.498 35.222 101.918 35.362C102.366 35.474 103.024 35.53 103.892 35.53C104.172 35.53 104.396 35.558 104.564 35.614C104.732 35.642 104.83 35.866 104.858 36.286C104.858 36.482 104.802 36.678 104.69 36.874C104.606 37.042 104.452 37.126 104.228 37.126C103.416 37.07 102.52 37.028 101.54 37C100.56 37 99.7058 37 98.9778 37C98.2218 37 97.5078 37 96.8358 37C96.1638 37.028 95.4218 37.07 94.6098 37.126ZM144.621 37.504C142.913 37.504 141.541 37.014 140.505 36.034C139.497 35.054 138.993 33.878 138.993 32.506C138.993 31.078 139.357 29.958 140.085 29.146C140.841 28.334 141.821 27.732 143.025 27.34C144.257 26.948 145.587 26.682 147.015 26.542C148.471 26.402 149.885 26.29 151.257 26.206V22.888C151.257 21.572 150.921 20.55 150.249 19.822C149.605 19.066 148.499 18.688 146.931 18.688C146.147 18.688 145.405 18.94 144.705 19.444C144.033 19.948 143.697 20.676 143.697 21.628C143.697 22.076 143.809 22.454 144.033 22.762C144.257 23.07 144.481 23.308 144.705 23.476C144.929 23.644 145.041 23.756 145.041 23.812C145.041 23.924 144.873 24.134 144.537 24.442C144.229 24.722 143.795 24.862 143.235 24.862C142.367 24.862 141.695 24.54 141.219 23.896C140.743 23.252 140.505 22.538 140.505 21.754C140.505 20.69 140.827 19.85 141.471 19.234C142.143 18.618 142.997 18.17 144.033 17.89C145.069 17.61 146.119 17.47 147.183 17.47C148.443 17.47 149.661 17.624 150.837 17.932C152.041 18.24 153.021 18.828 153.777 19.696C154.561 20.564 154.953 21.866 154.953 23.602V33.388C154.981 33.668 155.051 34.004 155.163 34.396C155.275 34.788 155.485 35.138 155.793 35.446C156.129 35.726 156.577 35.866 157.137 35.866C157.333 35.866 157.487 35.908 157.599 35.992C157.711 36.048 157.767 36.23 157.767 36.538C157.767 36.79 157.627 36.986 157.347 37.126C157.067 37.266 156.745 37.364 156.381 37.42C156.017 37.476 155.709 37.504 155.457 37.504C154.421 37.504 153.497 37.21 152.685 36.622C151.873 36.006 151.397 35.166 151.257 34.102C150.641 35.222 149.717 36.076 148.485 36.664C147.281 37.224 145.993 37.504 144.621 37.504ZM145.965 35.236C146.917 35.236 147.785 34.998 148.569 34.522C149.381 34.046 150.025 33.402 150.501 32.59C151.005 31.75 151.257 30.826 151.257 29.818V27.424C148.373 27.62 146.315 28.082 145.083 28.81C143.851 29.538 143.235 30.728 143.235 32.38C143.235 34.284 144.145 35.236 145.965 35.236ZM167.391 37.714C166.551 37.714 165.753 37.504 164.997 37.084C164.241 36.664 163.611 36.02 163.107 35.152C162.631 34.284 162.393 33.192 162.393 31.876V19.528L159.957 19.612C159.761 19.612 159.607 19.542 159.495 19.402C159.411 19.234 159.369 19.052 159.369 18.856C159.369 18.296 159.565 17.974 159.957 17.89C160.993 17.694 161.777 17.372 162.309 16.924C162.841 16.448 163.247 15.888 163.527 15.244C163.835 14.6 164.115 13.9 164.367 13.144C164.451 12.92 164.577 12.78 164.745 12.724C164.913 12.64 165.095 12.598 165.291 12.598C165.459 12.598 165.641 12.64 165.837 12.724C166.061 12.808 166.173 12.962 166.173 13.186L165.879 17.974L170.793 17.68C171.045 17.652 171.213 17.722 171.297 17.89C171.381 18.058 171.423 18.254 171.423 18.478C171.423 18.758 171.367 19.038 171.255 19.318C171.171 19.598 171.059 19.738 170.919 19.738L166.215 19.612V32.38C166.215 33.192 166.383 33.934 166.719 34.606C167.083 35.278 167.727 35.614 168.651 35.614C168.959 35.614 169.309 35.586 169.701 35.53C170.093 35.474 170.513 35.348 170.961 35.152C171.073 35.096 171.185 35.054 171.297 35.026C171.409 34.97 171.521 34.942 171.633 34.942C171.857 34.942 172.025 35.04 172.137 35.236C172.249 35.404 172.347 35.586 172.431 35.782C172.515 36.034 172.445 36.23 172.221 36.37C171.353 36.93 170.555 37.294 169.827 37.462C169.099 37.63 168.287 37.714 167.391 37.714Z" fill="white"/>
<path fill-rule="evenodd" clip-rule="evenodd" d="M7.79499 6.82265C8.21672 6.47578 8.78325 6.47578 9.20504 6.82265C14.4586 11.1435 16.8403 16.3234 16.9904 23.7553C17.0597 27.304 16.763 30.5534 15.86 33.3603C14.934 36.169 13.2871 38.7639 10.8626 40.9553C10.5567 41.2296 10.1553 41.319 9.78257 41.1958C9.04 40.9503 8.91361 39.9368 8.49999 39.3051C8.08616 39.9372 7.96054 40.9501 7.21741 41.1958C6.84472 41.319 6.44336 41.2296 6.13745 40.9553C3.71286 38.7639 2.06606 36.169 1.13994 33.3603C0.237013 30.5534 -0.0596477 27.304 0.00964549 23.7553C0.159749 16.3234 2.54138 11.1435 7.79499 6.82265ZM10.511 37.7542C12.0282 36.148 12.9424 34.3953 13.5884 32.3802C14.4012 29.9157 14.6356 27.194 14.5651 23.8202C14.4481 18.0252 13.2704 14.2539 9.70235 10.7524V20.9945C11.0974 21.4079 11.7239 22.9835 11.7239 24.7188C11.7239 26.4542 11.0974 28.0298 9.70235 28.4432V36.8231C9.70235 36.8231 10.3506 37.5112 10.511 37.7542ZM6.46776 37.7542C4.95052 36.148 4.05764 34.3953 3.41158 32.3802C2.59887 29.9157 2.36438 27.194 2.4349 23.8202C2.55171 18.0367 3.7233 14.2493 7.2764 10.7524V20.9945C5.88131 21.4079 5.25481 22.9835 5.25481 24.7188C5.25481 26.4542 5.88131 28.0298 7.2764 28.4432V36.8231C7.2764 36.8231 6.62211 37.5202 6.46776 37.7542ZM8.4894 22.8567C7.59616 22.8567 6.87208 23.6904 6.87208 24.7188C6.87208 25.7473 7.59616 26.581 8.4894 26.581C9.38253 26.581 10.1067 25.7473 10.1067 24.7188C10.1067 23.6904 9.38253 22.8567 8.4894 22.8567Z" fill="white"/>
<path d="M143.446 10.8064C143.448 10.9252 143.444 11.0464 143.435 11.1684C143.349 12.2457 142.796 13.3675 141.867 13.8508C141.465 14.0605 140.982 14.1278 140.551 13.9766C139.762 13.7018 139.58 12.947 139.458 12.1897C139.315 11.2927 139.233 10.3504 138.776 9.55055C138.714 9.46416 138.652 9.37933 138.585 9.29844C138.578 9.28995 138.572 9.28125 138.563 9.27141C138.562 9.27318 138.562 9.27473 138.562 9.27629C138.561 9.27961 138.559 9.28314 138.559 9.28625C137.302 12.9847 136.368 16.8925 135.462 20.6836C134.854 23.2243 134.228 25.8501 133.504 28.4184C133.055 30.0127 132.561 31.5974 131.919 33.116C131.607 33.8526 131.261 34.5733 130.869 35.2673C130.796 35.3968 130.722 35.5247 130.645 35.6533C130.586 35.7521 130.525 35.8513 130.462 35.9476C130.196 36.3617 129.898 36.7488 129.535 37.0736C128.497 37.9978 127.017 38.1836 125.894 37.2644C125.552 36.9847 125.268 36.6204 125.052 36.1846C125.004 36.0883 124.957 35.9934 124.912 35.8967C124.508 35.048 124.167 34.1822 123.883 33.3149C123.877 33.2998 123.874 33.286 123.869 33.2724C123.66 32.6435 123.483 32.0148 123.33 31.3922C123.25 31.0719 123.176 30.7539 123.109 30.438C123.039 30.1147 122.977 29.7934 122.92 29.4777C122.897 29.3462 122.873 29.2161 122.85 29.0845C122.832 28.9807 122.815 28.8785 122.798 28.7744C122.543 27.1728 122.42 25.6872 122.343 24.4442C122.343 24.43 122.34 24.4144 122.34 24.4002C122.289 23.5456 122.261 22.6861 122.24 21.8351C122.241 21.8176 122.24 21.8018 122.24 21.7876C122.239 21.7925 122.236 21.796 122.235 21.8009C122.223 21.8327 122.212 21.8662 122.2 21.898C122.185 21.935 122.173 21.9733 122.159 22.0118C121.937 22.6243 121.718 23.2461 121.494 23.8764C121.418 24.0905 121.343 24.3027 121.268 24.515C120.463 26.7839 119.638 29.0508 118.622 31.2242C118.405 31.6885 118.181 32.1491 117.943 32.6037C117.622 33.224 117.282 33.8361 116.921 34.4304C116.313 35.433 115.67 36.4977 114.73 37.1874C114.227 37.5593 113.634 37.8137 113.016 37.851C112.026 37.9097 111.074 37.417 110.252 36.8232C109.837 36.5236 109.44 36.1931 109.113 35.792C108.2 34.6763 107.859 32.6059 108.856 31.4509C108.925 31.3713 109.002 31.2984 109.084 31.2343C109.141 31.1912 109.2 31.1495 109.263 31.1136C109.264 31.1134 109.265 31.1116 109.267 31.1114C109.365 31.0513 109.471 31.0029 109.579 30.9669C109.957 30.8335 110.375 30.847 110.722 31.0577C111 31.2244 111.209 31.4946 111.409 31.7581C111.853 32.3361 112.284 33.0032 112.832 33.5043C112.837 33.4988 112.841 33.4935 112.846 33.4864C112.867 33.4548 112.892 33.4244 112.916 33.3859C115.145 30.1775 116.479 26.4078 117.892 22.4158C118.163 21.6485 118.438 20.8728 118.722 20.0959C118.734 20.0655 118.746 20.0321 118.759 19.9969C118.775 19.9549 118.791 19.9082 118.81 19.8595C119.04 19.2282 119.277 18.5992 119.525 17.9702C119.658 17.6321 119.794 17.2953 119.936 16.9592C119.956 16.9103 119.973 16.8649 119.988 16.8295C119.995 16.8158 120 16.8007 120.006 16.7872C120.008 16.7806 120.012 16.7738 120.014 16.7671C120.11 16.5359 120.208 16.306 120.308 16.0759C120.624 15.3514 120.957 14.6357 121.313 13.931C121.785 13.0001 122.713 12.493 123.693 12.5993C123.71 12.6016 123.728 12.6022 123.746 12.6061C123.839 12.6166 123.933 12.6333 124.027 12.658C124.473 12.7754 124.874 13.0149 125.193 13.3409C125.557 13.7111 125.815 14.1902 125.914 14.7252C125.936 14.846 125.949 14.9695 125.955 15.0941C125.971 15.4536 125.985 15.8135 125.996 16.1723C125.999 16.3147 126.004 16.4552 126.008 16.5975C126.014 16.8158 126.018 17.0342 126.022 17.2512C126.035 17.9683 126.042 18.6816 126.049 19.3822C126.06 20.5885 126.071 21.8235 126.117 23.0375C126.123 23.1827 126.129 23.3279 126.136 23.4714C126.143 23.6164 126.15 23.7598 126.157 23.9048C126.162 24.0183 126.168 24.1318 126.175 24.2435C126.177 24.275 126.18 24.3079 126.181 24.3395C126.224 25.0635 126.284 25.7883 126.363 26.5119C126.398 26.8291 126.437 27.1442 126.48 27.4587C126.652 28.7231 126.896 29.9739 127.244 31.1957C127.366 31.6276 127.502 32.0542 127.655 32.4736C127.688 32.5688 127.722 32.6623 127.758 32.7556C127.762 32.763 127.765 32.7721 127.768 32.7797L127.769 32.7779C127.774 32.7693 127.777 32.764 127.781 32.7556C128.678 31.0387 129.292 29.094 129.82 27.2171C130.52 24.7299 131.139 22.1448 131.735 19.644C131.923 18.8567 132.113 18.0631 132.306 17.2688C132.393 16.9072 132.482 16.5453 132.572 16.1833C132.694 15.6897 132.818 15.1974 132.944 14.7032C132.996 14.4989 133.049 14.2962 133.102 14.0917C133.164 13.8576 133.225 13.6234 133.287 13.3893C133.35 13.158 133.412 12.9285 133.475 12.6973C133.538 12.4644 133.603 12.233 133.668 12.0015C133.72 11.8163 133.772 11.6327 133.824 11.4491C133.955 10.9955 134.089 10.5415 134.226 10.0902C134.305 9.83127 134.386 9.57218 134.468 9.31288C134.549 9.05357 134.632 8.79583 134.717 8.53766C134.794 8.30762 134.871 8.07758 134.948 7.84754C134.955 7.8274 134.962 7.80747 134.969 7.78733C135.04 7.57722 135.114 7.36669 135.188 7.15616C135.195 7.13447 135.203 7.11277 135.21 7.09263C135.212 7.08599 135.215 7.0809 135.217 7.07581C135.245 6.99567 135.273 6.91708 135.302 6.83829C135.315 6.79998 135.329 6.76302 135.343 6.72451C135.356 6.6862 135.371 6.64748 135.385 6.61052C135.386 6.60564 135.387 6.60232 135.389 6.59723C135.395 6.57574 135.403 6.55405 135.412 6.5337C135.428 6.48854 135.446 6.44317 135.464 6.39936C135.476 6.37215 135.487 6.34516 135.5 6.31951C135.516 6.28078 135.535 6.24319 135.553 6.2056C135.572 6.16956 135.59 6.13374 135.61 6.09749C135.618 6.08046 135.628 6.06478 135.638 6.04754C135.99 5.43384 136.537 4.96685 137.196 4.7347C137.392 4.66387 137.595 4.6175 137.804 4.59249C139.139 4.43378 140.241 5.37007 141.151 6.31484C141.74 6.92923 142.298 7.58777 142.721 8.34006C143.144 9.08925 143.429 9.93899 143.446 10.8064Z" fill="#1188EE"/>
<path opacity="0.5" d="M135.219 7.26805L135.218 7.27448C135.024 9.15139 132.215 23.8663 129.535 31.1914C129.268 31.9217 128.991 32.6547 128.666 33.3567C128.417 33.8907 128.141 34.4077 127.816 34.8938C127.748 34.8892 127.679 34.8816 127.611 34.8691C126.774 34.7203 126.017 34.022 125.71 33.1831C125.39 32.3098 125.551 31.3361 125.745 30.4306C125.783 30.2506 125.823 30.0718 125.864 29.893C126.049 29.0762 126.256 28.264 126.48 27.4591C126.652 28.7235 126.896 29.9743 127.244 31.1962C127.365 31.628 127.502 32.0546 127.655 32.474C127.688 32.5693 127.722 32.6628 127.758 32.7561C127.762 32.7634 127.765 32.7725 127.768 32.7801C127.772 32.7715 127.777 32.7644 127.781 32.756C128.678 31.0391 129.292 29.0944 129.82 27.2175C130.52 24.7303 131.139 22.1453 131.735 19.6444C131.923 18.8571 132.113 18.0635 132.306 17.2692C132.393 16.9076 132.482 16.5458 132.571 16.1838C132.694 15.6901 132.818 15.1979 132.944 14.7036C132.996 14.4993 133.049 14.2966 133.102 14.0922C133.164 13.858 133.225 13.6238 133.287 13.3897C133.35 13.1584 133.412 12.9289 133.475 12.6977C133.538 12.4649 133.603 12.2334 133.668 12.0019C133.72 11.8168 133.772 11.6331 133.824 11.4495C133.955 10.9959 134.089 10.5419 134.226 10.0906C134.305 9.8317 134.386 9.57261 134.467 9.3133C134.549 9.054 134.631 8.79625 134.717 8.53809C134.794 8.30805 134.871 8.07801 134.948 7.84797C134.955 7.82783 134.962 7.8079 134.969 7.78776C135.04 7.57765 135.114 7.36712 135.188 7.15659C135.195 7.13489 135.203 7.1132 135.21 7.09306C135.212 7.08641 135.215 7.08133 135.217 7.07624C135.231 7.06947 135.231 7.13607 135.219 7.26805Z" fill="#1188EE"/>
<path opacity="0.5" d="M135.388 6.59744L135.385 6.61052L135.219 7.26762L135.218 7.27405L128.666 33.3563L128.166 35.3434C127.983 35.3155 127.798 35.1421 127.611 34.8687C126.913 33.8396 126.234 31.3905 125.864 29.8926C125.683 29.1597 125.575 28.6545 125.575 28.6545L126.363 26.5119C126.398 26.8291 126.437 27.1442 126.48 27.4587C126.651 28.7231 126.896 29.9739 127.244 31.1957C127.365 31.6276 127.502 32.0542 127.655 32.4736C127.688 32.5688 127.722 32.6624 127.758 32.7556C127.762 32.763 127.765 32.7721 127.768 32.7797C127.772 32.7711 127.777 32.764 127.781 32.7556C128.678 31.0387 129.292 29.094 129.82 27.2171C130.52 24.7299 131.139 22.1448 131.735 19.644C131.923 18.8567 132.113 18.0631 132.306 17.2688C132.393 16.9072 132.482 16.5453 132.571 16.1833C132.694 15.6897 132.818 15.1974 132.944 14.7032C132.996 14.4989 133.049 14.2962 133.102 14.0917C133.164 13.8576 133.225 13.6234 133.287 13.3893C133.35 13.158 133.412 12.9285 133.475 12.6973C133.538 12.4644 133.603 12.233 133.668 12.0015C133.72 11.8163 133.772 11.6327 133.824 11.4491C133.955 10.9955 134.089 10.5415 134.226 10.0902C134.305 9.83128 134.385 9.57218 134.467 9.31288C134.549 9.05358 134.631 8.79583 134.717 8.53766C134.794 8.30762 134.871 8.07758 134.948 7.84755C134.955 7.82741 134.962 7.80748 134.969 7.78733C135.04 7.57723 135.114 7.3667 135.188 7.15617C135.195 7.13447 135.203 7.11277 135.21 7.09263C135.212 7.08599 135.215 7.0809 135.217 7.07581C135.245 6.99567 135.272 6.91709 135.302 6.83829C135.314 6.79999 135.329 6.76303 135.343 6.72451C135.358 6.68267 135.373 6.63928 135.388 6.59744Z" fill="#1188EE"/>
<path opacity="0.5" d="M123.693 12.5993C123.562 12.6482 123.432 12.7111 123.301 12.7997C122.542 13.3064 122.082 14.1721 121.664 15.0095C120.019 18.3028 118.559 21.7015 117.293 25.1806C116.365 27.7368 115.527 30.3643 114.097 32.6429C113.731 33.2285 113.233 33.8408 112.562 33.854C112.14 33.8633 111.748 33.6256 111.389 33.388C110.785 32.9868 110.174 32.5327 109.842 31.8691C109.699 31.5847 109.616 31.2806 109.579 30.9669C109.957 30.8335 110.375 30.847 110.722 31.0577C111 31.2244 111.209 31.4946 111.409 31.7581C111.853 32.3361 112.284 33.0032 112.832 33.5043C112.838 33.4988 112.841 33.4935 112.846 33.4864C112.867 33.4548 112.892 33.4244 112.916 33.3859C115.145 30.1775 116.48 26.4078 117.892 22.4158C118.163 21.6485 118.438 20.8728 118.722 20.0959C118.734 20.0655 118.746 20.0321 118.759 19.9969C118.775 19.9549 118.791 19.9082 118.81 19.8595C119.04 19.2282 119.277 18.5991 119.525 17.9702C119.658 17.6321 119.794 17.2953 119.936 16.9592C119.956 16.9103 119.973 16.8649 119.988 16.8295C119.995 16.8158 120 16.8007 120.006 16.7872C120.008 16.7806 120.012 16.7737 120.014 16.7671C120.11 16.5359 120.208 16.306 120.308 16.0759C120.624 15.3514 120.957 14.6357 121.313 13.931C121.785 13.0001 122.714 12.493 123.693 12.5993Z" fill="#1188EE"/>
<path opacity="0.5" d="M123.746 12.6067C123.092 13.1761 122.678 13.994 122.301 14.7795C119.96 19.6499 118.154 24.7885 116.084 29.7965C115.691 30.7462 115.287 31.6976 114.744 32.559C114.371 33.1504 113.913 33.7157 113.295 34.0055C112.267 34.4887 110.975 34.0635 110.204 33.1782C109.706 32.6049 109.402 31.8784 109.263 31.1142C109.264 31.1139 109.265 31.1122 109.267 31.112C109.365 31.0519 109.471 31.0035 109.579 30.9675C109.957 30.8341 110.375 30.8476 110.722 31.0583C111 31.225 111.209 31.4952 111.409 31.7587C111.853 32.3367 112.284 33.0038 112.832 33.5049C112.837 33.4993 112.841 33.494 112.846 33.487C112.867 33.4554 112.892 33.425 112.916 33.3865C115.145 30.1781 116.479 26.4083 117.892 22.4164C118.163 21.6491 118.438 20.8734 118.722 20.0964C118.734 20.0661 118.746 20.0327 118.759 19.9975C118.775 19.9555 118.791 19.9087 118.81 19.8601C119.04 19.2288 119.277 18.5997 119.525 17.9708C119.658 17.6326 119.794 17.2958 119.936 16.9598C119.956 16.9109 119.973 16.8655 119.988 16.8301C119.995 16.8164 120 16.8013 120.006 16.7878C120.008 16.7812 120.012 16.7743 120.014 16.7677C120.11 16.5365 120.208 16.3066 120.308 16.0765C120.624 15.352 120.957 14.6363 121.313 13.9316C121.785 13.0007 122.713 12.4936 123.693 12.5998C123.71 12.6022 123.728 12.6028 123.746 12.6067Z" fill="#1188EE"/>
<path d="M130.645 35.6533C130.584 35.6857 130.513 35.8529 130.462 35.9476C130.386 36.0664 130.306 36.1841 130.223 36.2975C130.114 36.4481 129.998 36.5948 129.874 36.733C129.767 36.8531 129.655 36.9675 129.535 37.0735C128.497 37.9977 127.017 38.1835 125.894 37.2644C125.552 36.9847 125.268 36.6204 125.052 36.1845C125.004 36.0882 124.957 35.9933 124.912 35.8966C124.508 35.0479 124.167 34.1822 123.883 33.3149C123.877 33.2998 123.874 33.286 123.869 33.2724C123.666 32.6537 123.486 32.0254 123.33 31.3922C123.25 31.075 123.178 30.7568 123.109 30.4379C123.041 30.1191 122.978 29.7996 122.92 29.4777C122.896 29.3461 122.873 29.2161 122.85 29.0845C122.832 28.9807 122.815 28.8784 122.798 28.7744C122.563 27.343 122.397 25.8857 122.343 24.4442C122.343 24.43 122.34 24.4144 122.34 24.4002C122.289 23.5456 122.261 22.6861 122.24 21.835C122.241 21.8175 122.24 21.8017 122.239 21.7875C122.239 21.7733 122.242 21.7174 122.248 21.6291C122.3 20.5123 122.605 15.0863 123.834 13.8093C124.334 13.2904 124.8 13.2001 125.193 13.3408C125.202 13.3427 125.21 13.3463 125.22 13.3497C125.269 13.4014 125.318 13.4548 125.363 13.5118C125.402 13.5587 125.437 13.606 125.473 13.6565C125.492 13.6839 125.509 13.7116 125.528 13.739C125.53 13.7419 125.531 13.745 125.534 13.7477C125.567 13.8017 125.599 13.8559 125.63 13.9119C125.646 13.9413 125.661 13.9709 125.675 14.0006C125.679 14.0079 125.682 14.0139 125.686 14.0213L125.686 14.0228C125.697 14.0436 125.707 14.0627 125.716 14.0821C125.72 14.0926 125.724 14.1015 125.729 14.1104C125.813 14.3031 125.876 14.51 125.914 14.7252C125.936 14.8459 125.949 14.9694 125.955 15.094C125.971 15.4535 125.985 15.8135 125.996 16.1723C125.999 16.3146 126.004 16.4552 126.008 16.5975C126.014 16.8157 126.018 17.0342 126.022 17.2511C126.035 17.9682 126.042 18.6815 126.049 19.3821C126.06 20.5885 126.071 21.8235 126.117 23.0374C126.123 23.1826 126.129 23.3279 126.136 23.4713C126.141 23.6165 126.148 23.7616 126.157 23.9048C126.162 24.0183 126.168 24.1318 126.175 24.2435C126.176 24.275 126.18 24.3079 126.181 24.3394C126.197 24.6006 126.216 24.8598 126.237 25.1139C126.244 25.2099 126.253 25.3038 126.26 25.398C126.266 25.4924 126.275 25.5848 126.285 25.677C126.297 25.8134 126.31 25.948 126.323 26.0827C126.336 26.2157 126.35 26.3486 126.365 26.4799C126.382 26.6472 126.403 26.8125 126.423 26.9763C126.441 27.134 126.462 27.2898 126.484 27.4438C126.732 29.2576 127.134 31.0621 127.769 32.7779C127.906 33.1503 128.055 33.5195 128.216 33.884C128.338 34.1602 128.465 34.4404 128.628 34.695C128.647 34.724 128.665 34.7548 128.686 34.7851C128.739 34.8648 128.796 34.9456 128.857 35.0226C129.006 35.2156 129.176 35.393 129.373 35.5299C129.677 35.7405 130.061 35.8492 130.41 35.7502C130.493 35.7274 130.571 35.694 130.645 35.6533Z" fill="#1188EE"/>
<path opacity="0.5" d="M130.645 35.6529C130.584 35.6853 130.514 35.8526 130.462 35.9472C130.386 36.066 130.306 36.1837 130.223 36.2972C129.538 36.2188 128.855 35.9036 128.32 35.4339C127.315 34.5503 126.742 33.2383 126.336 31.9328C125.419 28.9779 125.185 25.8414 125.227 22.7466C125.264 19.8334 125.541 16.932 125.686 14.0225C125.697 14.0432 125.707 14.0624 125.716 14.0818C125.72 14.0922 125.724 14.1012 125.729 14.1101C125.813 14.3027 125.876 14.5097 125.914 14.7249C125.936 14.8456 125.949 14.9691 125.955 15.0937C125.972 15.4532 125.985 15.8131 125.996 16.1719C126 16.3143 126.005 16.4548 126.008 16.5971C126.014 16.8154 126.018 17.0339 126.022 17.2508C126.035 17.9679 126.042 18.6812 126.049 19.3818C126.06 20.5881 126.071 21.8231 126.117 23.0371C126.123 23.1823 126.129 23.3275 126.136 23.471C126.141 23.6162 126.148 23.7612 126.157 23.9044C126.162 24.0179 126.168 24.1314 126.175 24.2431C126.177 24.2746 126.18 24.3075 126.181 24.3391C126.197 24.6002 126.216 24.8594 126.238 25.1136C126.244 25.2095 126.253 25.3035 126.26 25.3977C126.266 25.492 126.275 25.5845 126.285 25.6767C126.297 25.813 126.31 25.9477 126.323 26.0823C126.336 26.2154 126.35 26.3482 126.365 26.4795C126.383 26.6468 126.403 26.8121 126.423 26.9759C126.441 27.1337 126.462 27.2894 126.484 27.4434C126.732 29.2572 127.134 31.0617 127.769 32.7775C127.906 33.15 128.055 33.5192 128.216 33.8836C128.338 34.1598 128.465 34.4401 128.628 34.6946C128.647 34.7236 128.665 34.7544 128.686 34.7848C128.74 34.8644 128.796 34.9452 128.857 35.0223C129.006 35.2153 129.176 35.3926 129.373 35.5296C129.677 35.7402 130.061 35.8488 130.41 35.7499C130.493 35.727 130.571 35.6937 130.645 35.6529Z" fill="#1188EE"/>
<path opacity="0.5" d="M130.645 35.6531C130.585 35.6855 130.514 35.8528 130.462 35.9474C130.386 36.0662 130.306 36.1839 130.223 36.2973C130.114 36.4479 129.998 36.5946 129.875 36.7328C129.645 36.7386 129.414 36.7128 129.191 36.6542C128.243 36.4037 127.46 35.6551 126.945 34.7778C126.43 33.9005 126.152 32.8974 125.916 31.8992C124.531 26.0445 124.453 19.8732 125.686 14.0211L125.686 14.0227C125.697 14.0434 125.707 14.0626 125.716 14.0819C125.72 14.0924 125.724 14.1013 125.729 14.1102C125.813 14.3029 125.876 14.5098 125.914 14.725C125.936 14.8457 125.949 14.9693 125.955 15.0938C125.972 15.4534 125.985 15.8133 125.996 16.1721C126 16.3144 126.005 16.455 126.008 16.5973C126.014 16.8156 126.018 17.034 126.022 17.2509C126.035 17.968 126.042 18.6813 126.049 19.382C126.06 20.5883 126.071 21.8233 126.117 23.0372C126.123 23.1825 126.129 23.3277 126.136 23.4711C126.141 23.6164 126.149 23.7614 126.157 23.9046C126.163 24.0181 126.168 24.1316 126.175 24.2433C126.177 24.2748 126.18 24.3077 126.181 24.3392C126.197 24.6004 126.216 24.8596 126.238 25.1137C126.244 25.2097 126.253 25.3036 126.26 25.3978C126.266 25.4922 126.275 25.5846 126.285 25.6768C126.297 25.8132 126.31 25.9478 126.323 26.0825C126.336 26.2155 126.351 26.3484 126.365 26.4797C126.383 26.647 126.403 26.8123 126.424 26.9761C126.442 27.1338 126.462 27.2896 126.484 27.4436C126.732 29.2574 127.134 31.0619 127.769 32.7777C127.906 33.1501 128.055 33.5194 128.216 33.8838C128.338 34.16 128.465 34.4402 128.628 34.6948C128.647 34.7238 128.665 34.7546 128.686 34.7849C128.74 34.8646 128.796 34.9454 128.857 35.0225C129.006 35.2154 129.176 35.3928 129.373 35.5297C129.677 35.7403 130.062 35.849 130.41 35.7501C130.493 35.7272 130.571 35.6938 130.645 35.6531Z" fill="#1188EE"/>
<path d="M117.943 32.604C117.622 33.2252 117.282 33.8362 116.921 34.4316C116.718 34.7669 116.51 35.1085 116.289 35.4405C116.215 35.5525 116.139 35.6634 116.061 35.7736C115.679 36.3103 115.251 36.807 114.73 37.1887C114.226 37.5599 113.633 37.8146 113.016 37.8514C112.027 37.9109 111.074 37.4179 110.252 36.8237C109.838 36.524 109.44 36.1942 109.113 35.7935C108.441 34.9715 108.079 33.6349 108.333 32.5261C108.418 32.1471 108.577 31.7948 108.818 31.4995C108.83 31.4827 108.844 31.4669 108.857 31.4521C109.316 30.9219 110.123 30.695 110.722 31.0579C111 31.2255 111.209 31.4952 111.41 31.7587C111.852 32.3373 112.284 33.0036 112.833 33.5053C112.837 33.4988 112.841 33.4937 112.846 33.4871C112.883 33.5494 112.925 33.6098 112.972 33.6649C113.135 33.8582 113.355 33.9899 113.581 34.0892C114.048 34.2952 114.561 34.3792 115.061 34.3311C115.793 34.2604 116.478 33.9133 117.06 33.4495C117.378 33.1958 117.669 32.9087 117.943 32.604Z" fill="#1188EE"/>
<path opacity="0.5" d="M116.289 35.4404C115.851 36.1028 115.357 36.7288 114.73 37.1886C114.226 37.5598 113.633 37.8144 113.015 37.8513C112.027 37.9108 111.074 37.4178 110.252 36.8236C109.838 36.5239 109.439 36.194 109.113 35.7933C108.211 34.6909 107.869 32.6609 108.818 31.4994C109.081 32.128 109.501 32.6948 109.925 33.2283C110.409 33.8358 110.915 34.431 111.506 34.9209C112.099 35.4118 112.785 35.7948 113.524 35.927C114.13 36.0362 114.754 35.974 115.344 35.807C115.669 35.7152 115.986 35.592 116.289 35.4404Z" fill="#1188EE"/>
<path opacity="0.5" d="M116.061 35.7733C115.679 36.31 115.251 36.8066 114.73 37.1884C114.226 37.5596 113.633 37.8142 113.016 37.8511C112.027 37.9106 111.074 37.4176 110.252 36.8234C109.838 36.5237 109.439 36.1939 109.113 35.7932C108.441 34.9712 108.079 33.6346 108.333 32.5257C108.751 33.6482 109.502 34.6533 110.322 35.5205C110.608 35.8244 110.91 36.1203 111.266 36.3246C111.595 36.5117 111.961 36.6155 112.33 36.6759C113.388 36.8498 114.491 36.6691 115.44 36.1659C115.655 36.0513 115.863 35.9204 116.061 35.7733Z" fill="#1188EE"/>
<path d="M124.912 35.897C124.846 35.7582 124.782 35.6189 124.719 35.4792C124.783 35.6185 124.845 35.758 124.912 35.897Z" fill="#1188EE"/>
<path d="M143.446 10.8068C143.449 10.9251 143.445 11.0469 143.435 11.1682C143.396 11.6407 143.269 12.1224 143.059 12.5552C142.909 12.8644 142.716 13.1494 142.484 13.3874C142.303 13.5738 142.095 13.7317 141.867 13.8515C141.464 14.0615 140.983 14.1281 140.551 13.9775C139.763 13.7022 139.579 12.9469 139.458 12.1897C139.318 11.3187 139.237 10.4031 138.813 9.61815C138.789 9.57381 138.76 9.53006 138.731 9.48881C138.684 9.42329 138.636 9.3604 138.586 9.29983C138.586 9.29983 138.586 9.29983 138.585 9.29889C138.578 9.2894 138.416 9.11565 138.333 9.0437C137.908 8.67821 137.34 8.52271 136.796 8.55838C136.253 8.59515 135.732 8.81391 135.278 9.12562C134.887 9.39336 134.543 9.72897 134.227 10.0909C134.385 9.57217 134.548 9.05394 134.717 8.53833C134.877 8.0543 135.04 7.57338 135.211 7.09233C135.213 7.0875 135.215 7.08128 135.217 7.07648C135.245 6.99796 135.274 6.91805 135.302 6.83953C135.33 6.75868 135.36 6.67876 135.389 6.59776C135.396 6.57693 135.404 6.55486 135.412 6.53385C135.429 6.4883 135.447 6.44382 135.465 6.39937C135.476 6.37215 135.488 6.34605 135.501 6.31976C135.516 6.28136 135.535 6.24373 135.553 6.20627C135.572 6.16974 135.59 6.13337 135.611 6.09792C135.619 6.08143 135.629 6.06497 135.638 6.04863C135.791 5.7822 135.981 5.54317 136.2 5.33948C136.487 5.07272 136.824 4.86621 137.196 4.73499C137.244 4.71778 137.292 4.70273 137.341 4.6888C137.491 4.64291 137.646 4.61151 137.803 4.59254C139.139 4.43449 140.242 5.37074 141.151 6.31611C141.741 6.92953 142.298 7.58851 142.721 8.33988C143.144 9.09009 143.429 9.93915 143.446 10.8068Z" fill="#1188EE"/>
<path opacity="0.5" d="M143.446 10.8066C143.449 10.925 143.445 11.0468 143.435 11.1681C143.396 11.6406 143.269 12.1223 143.059 12.5551C142.988 12.1612 142.906 11.7687 142.806 11.3811C142.374 9.72713 141.575 8.1664 140.448 6.91673C139.578 5.95196 138.511 5.17704 137.341 4.68836C137.491 4.64248 137.646 4.61107 137.803 4.5921C139.139 4.43406 140.242 5.37031 141.151 6.31567C141.741 6.9291 142.298 7.58808 142.721 8.33945C143.144 9.08993 143.429 9.93899 143.446 10.8066Z" fill="#1188EE"/>
<path opacity="0.5" d="M143.446 10.8068C143.449 10.9252 143.445 11.047 143.435 11.1683C143.396 11.6408 143.269 12.1225 143.06 12.5553C142.909 12.8645 142.716 13.1494 142.484 13.3874C141.979 11.2069 140.951 9.15364 139.519 7.477C139.029 6.90411 138.487 6.36865 137.861 5.97013C137.353 5.64655 136.784 5.41452 136.2 5.33941C136.487 5.07265 136.824 4.86614 137.196 4.73492C137.244 4.71771 137.292 4.70266 137.341 4.68873C137.491 4.64284 137.646 4.61144 137.803 4.59247C139.139 4.43442 140.242 5.37067 141.151 6.31604C141.741 6.92946 142.298 7.58844 142.721 8.33981C143.144 9.09014 143.43 9.93919 143.446 10.8068Z" fill="#1188EE"/>
</svg>
