<svg width="180" height="45" viewBox="0 0 180 45" fill="none" xmlns="http://www.w3.org/2000/svg">
<path d="M38.172 38.73C37.668 38.59 37.262 38.464 36.954 38.352C36.646 38.268 36.492 38.226 36.492 38.226C36.548 38.086 36.52 37.96 36.408 37.848C36.324 37.736 36.128 37.666 35.82 37.638C35.4 37.358 34.966 36.966 34.518 36.462C34.07 35.958 33.678 35.44 33.342 34.908C33.006 34.376 32.782 33.984 32.67 33.732C32.474 33.312 32.488 33.06 32.712 32.976C32.936 32.864 33.202 32.738 33.51 32.598C33.818 32.374 34.14 32.206 34.476 32.094C34.84 31.982 35.134 32.164 35.358 32.64C35.722 33.284 36.282 33.83 37.038 34.278C37.822 34.726 38.704 34.992 39.684 35.076C40.692 35.16 41.7 34.992 42.708 34.572C43.38 34.264 43.744 33.844 43.8 33.312C43.856 32.752 43.646 32.108 43.17 31.38C43.086 31.156 42.96 30.974 42.792 30.834C42.652 30.694 42.428 30.512 42.12 30.288C41.84 30.064 41.434 29.7 40.902 29.196C40.482 29 40.09 28.818 39.726 28.65C39.39 28.482 39.026 28.3 38.634 28.104C38.186 27.88 37.682 27.572 37.122 27.18C36.562 26.76 36.044 26.312 35.568 25.836C35.092 25.332 34.728 24.856 34.476 24.408C34.028 23.988 33.748 23.414 33.636 22.686C33.524 21.93 33.538 21.132 33.678 20.292C33.846 19.452 34.112 18.696 34.476 18.024C34.644 17.632 34.952 17.128 35.4 16.512C35.848 15.868 36.352 15.21 36.912 14.538C37.472 13.866 38.004 13.264 38.508 12.732C39.04 12.172 39.46 11.794 39.768 11.598C39.992 11.374 40.23 11.15 40.482 10.926C40.734 10.674 40.86 10.548 40.86 10.548C40.888 10.408 40.93 10.338 40.986 10.338C41.07 10.338 41.112 10.338 41.112 10.338C41.252 10.254 41.56 10.114 42.036 9.918C42.512 9.722 43.03 9.358 43.59 8.826C45.466 7.93 47.062 7.328 48.378 7.02C49.694 6.684 50.73 6.516 51.486 6.516C52.186 6.544 52.872 6.74 53.544 7.104C54.216 7.44 54.79 7.874 55.266 8.406C55.77 8.938 56.064 9.54 56.148 10.212C56.344 10.884 56.246 11.696 55.854 12.648C55.49 13.572 54.972 14.454 54.3 15.294C53.656 16.106 52.984 16.708 52.284 17.1C51.5 17.436 50.828 17.478 50.268 17.226C49.736 16.974 49.484 16.582 49.512 16.05C49.512 15.826 49.582 15.56 49.722 15.252C49.89 14.944 50.324 14.398 51.024 13.614C51.92 12.298 52.396 11.36 52.452 10.8C52.508 10.24 52.256 9.918 51.696 9.834C51.528 9.778 51.206 9.792 50.73 9.876C50.254 9.96 49.736 10.072 49.176 10.212C48.644 10.324 48.168 10.45 47.748 10.59C47.356 10.73 47.16 10.828 47.16 10.884C47.16 10.884 47.16 10.926 47.16 11.01C47.16 11.094 47.104 11.122 46.992 11.094C46.936 11.094 46.74 11.192 46.404 11.388C46.096 11.556 45.718 11.78 45.27 12.06C44.822 12.34 44.374 12.634 43.926 12.942C43.506 13.222 43.142 13.474 42.834 13.698C42.526 13.922 42.358 14.062 42.33 14.118C42.274 14.426 41.952 14.706 41.364 14.958C40.804 15.294 40.314 15.77 39.894 16.386C39.474 17.002 38.984 17.786 38.424 18.738C37.948 19.382 37.612 20.082 37.416 20.838C37.22 21.566 37.22 22.154 37.416 22.602C37.556 23.05 37.934 23.498 38.55 23.946C39.194 24.366 40.062 24.898 41.154 25.542C42.106 26.074 43.002 26.634 43.842 27.222C44.682 27.81 45.396 28.384 45.984 28.944C46.572 29.476 46.95 29.924 47.118 30.288C47.454 30.764 47.65 31.31 47.706 31.926C47.79 32.542 47.79 33.144 47.706 33.732C47.65 34.292 47.566 34.754 47.454 35.118C47.258 35.566 46.95 36.042 46.53 36.546C46.138 37.05 45.774 37.288 45.438 37.26C45.13 37.344 44.892 37.442 44.724 37.554C44.584 37.666 44.416 37.764 44.22 37.848C44.024 37.96 43.562 38.086 42.834 38.226C42.106 38.394 41.308 38.52 40.44 38.604C39.572 38.716 38.816 38.758 38.172 38.73ZM61.0866 35.916C60.8066 35.636 60.5826 35.258 60.4146 34.782C60.2466 34.278 60.0786 33.704 59.9106 33.06C59.8546 32.836 59.8266 32.584 59.8266 32.304C59.8546 32.024 59.8546 31.8 59.8266 31.632C59.7426 31.828 59.6026 32.08 59.4066 32.388C59.2386 32.696 59.0706 32.92 58.9026 33.06C58.7906 33.172 58.5386 33.396 58.1466 33.732C57.7546 34.04 57.3626 34.292 56.9706 34.488C56.0466 35.076 55.2206 35.356 54.4926 35.328C53.7926 35.272 53.1766 34.908 52.6446 34.236C52.1966 33.872 51.8326 33.41 51.5526 32.85C51.2726 32.29 51.2166 31.618 51.3846 30.834C51.4406 29.854 51.5806 28.902 51.8046 27.978C52.0286 27.026 52.4906 25.766 53.1906 24.198C53.7786 23.05 54.2266 22.154 54.5346 21.51C54.8426 20.866 55.0386 20.488 55.1226 20.376C55.5426 20.236 56.0606 20.25 56.6766 20.418C57.2926 20.558 57.6286 20.824 57.6846 21.216C57.8526 21.496 57.8526 22.028 57.6846 22.812C57.5166 23.568 57.1806 24.436 56.6766 25.416C56.2846 26.368 55.9066 27.292 55.5426 28.188C55.2066 29.084 54.9966 29.84 54.9126 30.456C54.8566 31.072 55.0246 31.45 55.4166 31.59C55.6686 31.73 56.0326 31.716 56.5086 31.548C57.0126 31.38 57.6006 30.876 58.2726 30.036C58.9446 29.196 59.6586 27.866 60.4146 26.046C60.6386 25.486 60.8066 24.996 60.9186 24.576C61.0306 24.128 61.1006 23.638 61.1286 23.106C61.0726 22.77 61.1566 22.42 61.3806 22.056C61.6326 21.692 61.9266 21.412 62.2626 21.216C62.3746 21.076 62.5286 20.95 62.7246 20.838C62.9206 20.698 63.0466 20.698 63.1026 20.838L63.7746 20.796C63.8866 20.768 64.0126 20.88 64.1526 21.132C64.2926 21.384 64.4326 21.566 64.5726 21.678C64.8806 21.93 65.0206 22.476 64.9926 23.316C64.9646 24.156 64.6286 25.332 63.9846 26.844C63.4526 27.992 63.0886 28.86 62.8926 29.448C62.7246 30.036 62.6266 30.61 62.5986 31.17C62.5986 31.674 62.6406 32.108 62.7246 32.472C62.8086 32.808 63.0606 33.158 63.4806 33.522C63.7886 33.718 63.9566 34.054 63.9846 34.53C64.0406 34.978 64.0546 35.37 64.0266 35.706C63.9706 35.958 63.7466 36.126 63.3546 36.21C62.9906 36.322 62.5846 36.35 62.1366 36.294C61.7166 36.238 61.3666 36.112 61.0866 35.916ZM67.5175 34.866C67.2655 34.67 66.9855 34.418 66.6775 34.11C66.3975 33.802 66.2995 33.368 66.3835 32.808C66.4675 32.024 66.5795 31.338 66.7195 30.75C66.8595 30.134 67.0275 29.434 67.2235 28.65C67.2795 28.314 67.4195 27.74 67.6435 26.928C67.8955 26.116 68.1895 25.234 68.5255 24.282C68.8615 23.33 69.2115 22.434 69.5755 21.594C69.9395 20.726 70.2615 20.082 70.5415 19.662C70.8495 19.382 71.2975 19.242 71.8855 19.242C72.5015 19.242 72.9215 19.354 73.1455 19.578C73.4535 19.83 73.5515 20.278 73.4395 20.922C73.3275 21.538 72.9355 22.504 72.2635 23.82C72.1235 24.156 71.9415 24.52 71.7175 24.912C71.5215 25.276 71.3815 25.584 71.2975 25.836C71.2135 26.06 71.2415 26.158 71.3815 26.13C71.5495 25.822 71.8575 25.472 72.3055 25.08C72.7535 24.66 73.2295 24.254 73.7335 23.862C74.2375 23.47 74.7135 23.12 75.1615 22.812C75.6095 22.504 75.9175 22.308 76.0855 22.224C76.3095 22.084 76.5615 21.972 76.8415 21.888C77.1495 21.776 77.3595 21.692 77.4715 21.636C78.1155 21.328 78.8155 21.216 79.5715 21.3C80.3555 21.356 80.8315 21.594 80.9995 22.014C81.0275 22.238 81.1115 22.406 81.2515 22.518C81.4195 22.63 81.5035 22.686 81.5035 22.686C81.6155 22.686 81.6715 22.728 81.6715 22.812C81.6995 22.896 81.7135 22.938 81.7135 22.938C81.7135 23.134 81.5175 23.414 81.1255 23.778C80.7615 24.142 80.3555 24.338 79.9075 24.366C79.5435 24.394 79.2215 24.464 78.9415 24.576C78.6615 24.688 78.3255 24.828 77.9335 24.996C76.8695 25.612 75.9035 26.158 75.0355 26.634C74.1955 27.11 73.3275 27.838 72.4315 28.818C72.2355 29.042 72.0255 29.252 71.8015 29.448C71.5775 29.644 71.3535 29.924 71.1295 30.288C70.9895 30.428 70.8495 30.736 70.7095 31.212C70.5695 31.688 70.4435 32.15 70.3315 32.598C70.2475 33.018 70.2055 33.27 70.2055 33.354C70.2055 33.354 70.1635 33.494 70.0795 33.774C69.9955 34.026 69.8555 34.278 69.6595 34.53C69.3235 34.978 68.9875 35.258 68.6515 35.37C68.3435 35.482 67.9655 35.314 67.5175 34.866ZM83.9123 39.654C83.5483 39.682 83.1843 39.458 82.8203 38.982C82.4563 38.506 82.1483 37.876 81.8963 37.092C81.6723 36.308 81.5603 35.454 81.5603 34.53C81.4483 33.382 81.5463 31.982 81.8543 30.33C82.1623 28.678 82.6243 26.746 83.2403 24.534C83.4643 23.778 83.7863 22.854 84.2063 21.762C84.6263 20.67 85.0603 19.592 85.5083 18.528C85.9843 17.464 86.4043 16.568 86.7683 15.84C87.1323 15.084 87.3563 14.664 87.4403 14.58C87.6083 14.636 87.6923 14.51 87.6923 14.202C87.6923 14.146 87.8043 13.936 88.0283 13.572C88.2523 13.208 88.4623 12.816 88.6583 12.396C89.0223 11.864 89.4843 11.304 90.0443 10.716C90.6323 10.1 91.2203 9.54 91.8083 9.036C92.4243 8.532 92.9563 8.196 93.4043 8.028C93.8243 7.86 94.2443 7.776 94.6643 7.776C95.1963 7.776 95.7703 7.958 96.3863 8.322C97.0303 8.658 97.5763 9.092 98.0243 9.624C98.5003 10.128 98.7383 10.646 98.7383 11.178C98.7383 11.626 98.6403 12.06 98.4443 12.48C98.3603 12.9 98.1923 13.376 97.9403 13.908C97.6883 14.412 97.4363 14.888 97.1843 15.336C96.9603 15.756 96.7783 16.064 96.6383 16.26C95.8263 16.876 95.1963 17.114 94.7483 16.974C94.3003 16.834 94.1463 16.666 94.2863 16.47C94.2863 16.358 94.3283 16.12 94.4123 15.756C94.4963 15.364 94.5523 15.07 94.5803 14.874C94.5803 14.818 94.6363 14.65 94.7483 14.37C94.8883 14.09 94.9583 13.81 94.9583 13.53C95.2103 12.522 95.3223 11.864 95.2943 11.556C95.2943 11.248 95.1683 11.094 94.9163 11.094C94.7763 11.066 94.6083 11.094 94.4123 11.178C94.2163 11.262 94.0483 11.374 93.9083 11.514C93.7963 11.626 93.7403 11.752 93.7403 11.892C93.7403 11.976 93.7403 12.032 93.7403 12.06C93.6563 12.032 93.4043 12.27 92.9843 12.774C92.5923 13.25 92.1443 13.838 91.6403 14.538C91.1363 15.21 90.7163 15.826 90.3803 16.386C90.1563 16.862 89.9043 17.408 89.6243 18.024C89.3723 18.612 89.0083 19.522 88.5323 20.754L88.1963 21.762L88.8683 21.846C89.0923 21.874 89.3723 21.86 89.7083 21.804C90.0723 21.72 90.4783 21.636 90.9263 21.552C91.8783 21.412 92.5223 21.51 92.8583 21.846C93.2223 22.154 93.5023 22.532 93.6983 22.98C94.0063 23.652 93.8383 24.114 93.1943 24.366C92.5503 24.59 91.1643 24.758 89.0363 24.87C88.5883 24.814 88.1963 24.8 87.8603 24.828C87.5523 24.828 87.3423 24.884 87.2303 24.996C87.1183 25.052 86.9643 25.36 86.7683 25.92C86.5723 26.452 86.3623 27.096 86.1383 27.852C85.9423 28.58 85.7883 29.28 85.6763 29.952C85.4523 30.82 85.3123 31.758 85.2563 32.766C85.2003 33.746 85.2003 34.67 85.2563 35.538C85.3123 36.378 85.3963 37.022 85.5083 37.47C85.6763 38.142 85.5363 38.632 85.0883 38.94C84.6403 39.276 84.2483 39.514 83.9123 39.654ZM124.92 35.412C124.696 35.468 124.402 35.496 124.038 35.496C123.674 35.468 123.352 35.426 123.072 35.37C122.82 35.286 122.694 35.202 122.694 35.118C122.694 34.978 122.624 34.908 122.484 34.908C122.484 34.908 122.33 34.796 122.022 34.572C121.714 34.32 121.434 34.138 121.182 34.026C120.93 33.634 120.762 33.186 120.678 32.682C120.622 32.15 120.79 31.226 121.182 29.91C121.21 29.014 121.462 28.076 121.938 27.096C122.414 26.088 123.016 25.108 123.744 24.156C124.472 23.204 125.228 22.364 126.012 21.636C126.796 20.88 127.496 20.32 128.112 19.956C128.504 19.564 129.022 19.354 129.666 19.326C130.338 19.298 130.926 19.424 131.43 19.704C131.71 19.844 132.018 20.124 132.354 20.544C132.69 20.964 133.012 21.412 133.32 21.888C133.628 22.336 133.866 22.742 134.034 23.106C134.118 23.414 134.188 23.694 134.244 23.946C134.328 24.17 134.384 24.45 134.412 24.786C134.44 25.122 134.412 25.626 134.328 26.298C134.188 26.802 134.062 27.32 133.95 27.852C133.866 28.356 133.824 28.874 133.824 29.406C133.768 29.938 133.824 30.316 133.992 30.54C134.188 30.764 134.468 30.778 134.832 30.582C135.168 30.414 135.518 30.4 135.882 30.54C136.246 30.652 136.498 30.876 136.638 31.212C136.806 31.52 136.764 31.926 136.512 32.43C136.344 32.794 136.078 33.144 135.714 33.48C135.35 33.816 134.944 34.096 134.496 34.32C134.048 34.516 133.614 34.614 133.194 34.614C132.886 34.614 132.578 34.502 132.27 34.278C131.962 34.026 131.682 33.69 131.43 33.27C131.178 32.85 130.968 32.388 130.8 31.884L130.548 30.918L129.036 32.304C128.672 32.696 128.308 33.06 127.944 33.396C127.608 33.704 127.398 33.928 127.314 34.068C127.174 34.32 126.894 34.544 126.474 34.74C126.082 34.936 125.564 35.16 124.92 35.412ZM126.054 31.38C126.53 31.1 126.936 30.764 127.272 30.372C127.636 29.98 127.986 29.546 128.322 29.07C128.658 28.566 129.022 28.034 129.414 27.474C129.89 26.83 130.226 26.312 130.422 25.92C130.646 25.528 130.814 25.108 130.926 24.66C130.814 24.352 130.66 24.03 130.464 23.694C130.268 23.33 130.072 23.134 129.876 23.106C129.484 23.106 129.008 23.344 128.448 23.82C127.916 24.296 127.328 24.982 126.684 25.878C126.572 26.018 126.432 26.242 126.264 26.55C126.096 26.858 125.928 27.152 125.76 27.432C125.62 27.684 125.522 27.852 125.466 27.936C125.382 28.048 125.256 28.314 125.088 28.734C124.948 29.126 124.822 29.532 124.71 29.952C124.598 30.344 124.542 30.624 124.542 30.792C124.542 30.96 124.556 31.142 124.584 31.338C124.64 31.534 124.78 31.66 125.004 31.716C125.228 31.772 125.578 31.66 126.054 31.38ZM142.314 38.52C140.942 38.492 140.06 38.1 139.668 37.344C139.304 36.616 139.206 35.692 139.374 34.572C139.542 34.04 139.64 33.564 139.668 33.144C139.724 32.696 139.85 32.416 140.046 32.304C140.046 32.304 140.06 32.262 140.088 32.178C140.144 32.094 140.13 32.01 140.046 31.926C140.046 31.562 140.172 31.058 140.424 30.414C140.48 30.246 140.55 30.05 140.634 29.826C140.746 29.574 140.802 29.448 140.802 29.448C140.662 29.224 140.662 29.042 140.802 28.902C140.942 28.762 141.082 28.636 141.222 28.524C141.39 28.384 141.404 28.23 141.264 28.062C141.208 27.95 141.278 27.698 141.474 27.306C141.67 26.886 141.894 26.452 142.146 26.004C142.398 25.556 142.566 25.206 142.65 24.954C142.65 24.898 142.72 24.702 142.86 24.366C143 24.03 143.168 23.638 143.364 23.19C143.56 22.742 143.742 22.336 143.91 21.972C144.106 21.608 144.232 21.37 144.288 21.258C144.568 21.118 144.456 21.02 143.952 20.964C143.448 20.908 142.916 20.894 142.356 20.922C141.488 20.894 140.788 20.852 140.256 20.796C139.752 20.74 139.332 20.614 138.996 20.418C138.66 20.026 138.618 19.564 138.87 19.032C139.122 18.472 139.528 18.178 140.088 18.15C140.452 18.122 140.732 18.108 140.928 18.108C141.152 18.108 141.432 18.094 141.768 18.066C142.132 18.01 142.692 17.94 143.448 17.856L145.59 17.688L145.716 16.974C145.94 16.61 146.094 16.372 146.178 16.26C146.262 16.148 146.318 16.036 146.346 15.924C146.374 15.784 146.416 15.546 146.472 15.21C146.472 15.21 146.598 14.986 146.85 14.538C147.102 14.062 147.256 13.572 147.312 13.068C147.648 12.508 147.942 12.004 148.194 11.556C148.446 11.08 148.6 10.786 148.656 10.674C149.132 9.974 149.594 9.596 150.042 9.54C150.518 9.484 150.966 9.596 151.386 9.876C151.638 10.016 151.876 10.198 152.1 10.422C152.324 10.618 152.464 10.884 152.52 11.22C152.576 11.528 152.45 11.934 152.142 12.438C152.086 12.55 152.002 12.76 151.89 13.068C151.778 13.348 151.694 13.586 151.638 13.782C151.47 13.978 151.26 14.3 151.008 14.748C150.784 15.168 150.63 15.602 150.546 16.05C150.322 16.526 150.182 16.82 150.126 16.932C150.07 17.044 149.986 17.1 149.874 17.1C149.93 17.38 150.098 17.52 150.378 17.52C150.658 17.492 151.12 17.464 151.764 17.436C152.296 17.38 152.66 17.324 152.856 17.268C153.08 17.184 153.332 17.212 153.612 17.352C153.752 17.548 153.822 17.842 153.822 18.234C153.85 18.598 153.808 18.962 153.696 19.326C153.584 19.662 153.43 19.872 153.234 19.956C153.094 19.956 152.8 20.04 152.352 20.208C151.932 20.348 151.4 20.432 150.756 20.46L148.53 20.67L147.816 22.098C147.62 22.462 147.452 22.798 147.312 23.106C147.172 23.386 147.074 23.554 147.018 23.61C147.018 23.778 146.92 24.03 146.724 24.366C146.556 24.702 146.374 25.066 146.178 25.458C146.01 25.934 145.814 26.368 145.59 26.76C145.394 27.152 145.296 27.348 145.296 27.348C145.184 27.348 145.128 27.432 145.128 27.6C145.268 27.936 145.226 28.188 145.002 28.356C144.862 28.44 144.736 28.566 144.624 28.734C144.54 28.874 144.498 28.944 144.498 28.944C144.61 29.056 144.624 29.196 144.54 29.364C144.484 29.532 144.4 29.714 144.288 29.91C144.288 30.134 144.218 30.456 144.078 30.876C143.966 31.296 143.84 31.688 143.7 32.052C143.728 32.556 143.756 32.878 143.784 33.018C143.812 33.158 143.882 33.214 143.994 33.186C144.134 33.214 144.33 33.214 144.582 33.186C144.834 33.158 145.016 33.144 145.128 33.144C145.548 32.948 145.352 33.928 144.54 36.084C144.092 36.784 143.644 37.358 143.196 37.806C142.748 38.282 142.454 38.52 142.314 38.52Z" fill="white"/>
<path fill-rule="evenodd" clip-rule="evenodd" d="M7.79499 6.82265C8.21672 6.47578 8.78325 6.47578 9.20504 6.82265C14.4586 11.1435 16.8403 16.3234 16.9904 23.7553C17.0597 27.304 16.763 30.5534 15.86 33.3603C14.934 36.169 13.2871 38.7639 10.8626 40.9553C10.5567 41.2296 10.1553 41.319 9.78257 41.1958C9.04 40.9503 8.91361 39.9368 8.49999 39.3051C8.08616 39.9372 7.96054 40.9501 7.21741 41.1958C6.84472 41.319 6.44336 41.2296 6.13745 40.9553C3.71286 38.7639 2.06606 36.169 1.13994 33.3603C0.237013 30.5534 -0.0596477 27.304 0.00964549 23.7553C0.159749 16.3234 2.54138 11.1435 7.79499 6.82265ZM10.511 37.7542C12.0282 36.148 12.9424 34.3953 13.5884 32.3802C14.4012 29.9157 14.6356 27.194 14.5651 23.8202C14.4481 18.0252 13.2704 14.2539 9.70235 10.7524V20.9945C11.0974 21.4079 11.7239 22.9835 11.7239 24.7188C11.7239 26.4542 11.0974 28.0298 9.70235 28.4432V36.8231C9.70235 36.8231 10.3506 37.5112 10.511 37.7542ZM6.46776 37.7542C4.95052 36.148 4.05764 34.3953 3.41158 32.3802C2.59887 29.9157 2.36438 27.194 2.4349 23.8202C2.55171 18.0367 3.7233 14.2493 7.2764 10.7524V20.9945C5.88131 21.4079 5.25481 22.9835 5.25481 24.7188C5.25481 26.4542 5.88131 28.0298 7.2764 28.4432V36.8231C7.2764 36.8231 6.62211 37.5202 6.46776 37.7542ZM8.4894 22.8567C7.59616 22.8567 6.87208 23.6904 6.87208 24.7188C6.87208 25.7473 7.59616 26.581 8.4894 26.581C9.38253 26.581 10.1067 25.7473 10.1067 24.7188C10.1067 23.6904 9.38253 22.8567 8.4894 22.8567Z" fill="white"/>
<path d="M127.446 11.8064C127.448 11.9252 127.444 12.0464 127.435 12.1684C127.349 13.2457 126.796 14.3675 125.867 14.8508C125.465 15.0605 124.982 15.1278 124.551 14.9766C123.762 14.7018 123.58 13.947 123.458 13.1897C123.315 12.2927 123.233 11.3504 122.776 10.5506C122.714 10.4642 122.652 10.3793 122.585 10.2984C122.578 10.29 122.572 10.2812 122.563 10.2714C122.562 10.2732 122.562 10.2747 122.562 10.2763C122.561 10.2796 122.559 10.2831 122.559 10.2863C121.302 13.9847 120.368 17.8925 119.462 21.6836C118.854 24.2243 118.228 26.8501 117.504 29.4184C117.055 31.0127 116.561 32.5974 115.919 34.116C115.607 34.8526 115.261 35.5733 114.869 36.2673C114.796 36.3968 114.722 36.5248 114.645 36.6533C114.586 36.7521 114.525 36.8513 114.462 36.9476C114.196 37.3617 113.898 37.7488 113.535 38.0736C112.497 38.9978 111.017 39.1836 109.894 38.2644C109.552 37.9847 109.268 37.6204 109.052 37.1846C109.004 37.0883 108.957 36.9934 108.912 36.8967C108.508 36.048 108.167 35.1822 107.883 34.3149C107.877 34.2998 107.874 34.286 107.869 34.2724C107.66 33.6435 107.483 33.0148 107.33 32.3922C107.25 32.0719 107.176 31.7539 107.109 31.438C107.039 31.1147 106.977 30.7934 106.92 30.4777C106.897 30.3462 106.873 30.2161 106.85 30.0845C106.832 29.9807 106.815 29.8785 106.798 29.7744C106.543 28.1728 106.42 26.6872 106.343 25.4442C106.343 25.43 106.34 25.4144 106.34 25.4002C106.289 24.5456 106.261 23.6861 106.24 22.8351C106.241 22.8176 106.24 22.8018 106.24 22.7876C106.239 22.7925 106.236 22.796 106.235 22.8009C106.223 22.8327 106.212 22.8662 106.2 22.898C106.185 22.935 106.173 22.9733 106.159 23.0118C105.937 23.6243 105.718 24.2461 105.495 24.8764C105.418 25.0905 105.343 25.3027 105.268 25.515C104.463 27.7839 103.638 30.0508 102.622 32.2242C102.405 32.6885 102.181 33.1491 101.943 33.6037C101.622 34.224 101.282 34.8361 100.921 35.4304C100.313 36.433 99.6705 37.4977 98.7304 38.1874C98.2266 38.5593 97.6337 38.8137 97.016 38.851C96.0264 38.9097 95.0742 38.417 94.252 37.8232C93.8375 37.5236 93.4396 37.1931 93.113 36.792C92.1998 35.6763 91.8592 33.6059 92.8563 32.4509C92.9248 32.3713 93.0017 32.2984 93.0843 32.2343C93.1414 32.1912 93.2001 32.1495 93.2628 32.1136C93.2642 32.1134 93.2655 32.1116 93.267 32.1114C93.3652 32.0513 93.4712 32.0029 93.579 31.9669C93.9573 31.8335 94.3746 31.847 94.7222 32.0577C95.0004 32.2244 95.209 32.4946 95.4092 32.7581C95.8528 33.3361 96.2836 34.0032 96.8323 34.5043C96.8375 34.4988 96.8412 34.4935 96.8463 34.4864C96.8673 34.4548 96.8916 34.4244 96.9162 34.3859C99.145 31.1775 100.479 27.4078 101.892 23.4158C102.163 22.6485 102.438 21.8728 102.722 21.0959C102.734 21.0655 102.746 21.0321 102.759 20.9969C102.775 20.9549 102.791 20.9082 102.81 20.8595C103.04 20.2282 103.277 19.5992 103.525 18.9702C103.658 18.6321 103.794 18.2953 103.936 17.9592C103.956 17.9103 103.973 17.8649 103.988 17.8295C103.995 17.8158 104 17.8007 104.006 17.7872C104.008 17.7806 104.012 17.7738 104.014 17.7671C104.11 17.5359 104.208 17.306 104.308 17.0759C104.624 16.3514 104.957 15.6357 105.313 14.931C105.785 14.0001 106.713 13.493 107.693 13.5993C107.71 13.6016 107.728 13.6022 107.746 13.6061C107.839 13.6166 107.933 13.6333 108.027 13.658C108.473 13.7754 108.874 14.0149 109.193 14.3409C109.557 14.7111 109.815 15.1902 109.914 15.7252C109.936 15.846 109.949 15.9695 109.955 16.0941C109.971 16.4536 109.985 16.8135 109.996 17.1723C109.999 17.3147 110.004 17.4552 110.008 17.5975C110.014 17.8158 110.018 18.0342 110.022 18.2512C110.035 18.9683 110.042 19.6816 110.049 20.3822C110.06 21.5885 110.071 22.8235 110.117 24.0375C110.123 24.1827 110.129 24.3279 110.136 24.4714C110.143 24.6164 110.15 24.7598 110.157 24.9048C110.162 25.0183 110.168 25.1318 110.175 25.2435C110.177 25.275 110.18 25.3079 110.181 25.3395C110.224 26.0635 110.284 26.7883 110.363 27.5119C110.398 27.8291 110.437 28.1442 110.48 28.4587C110.652 29.7231 110.896 30.9739 111.244 32.1957C111.366 32.6276 111.502 33.0542 111.655 33.4736C111.688 33.5688 111.722 33.6623 111.758 33.7556C111.762 33.763 111.765 33.7721 111.768 33.7797L111.769 33.7779C111.774 33.7693 111.777 33.764 111.781 33.7556C112.678 32.0387 113.292 30.094 113.82 28.2171C114.52 25.7299 115.139 23.1448 115.735 20.644C115.923 19.8567 116.113 19.0631 116.306 18.2688C116.393 17.9072 116.482 17.5453 116.572 17.1833C116.694 16.6897 116.818 16.1974 116.944 15.7032C116.996 15.4989 117.049 15.2962 117.102 15.0917C117.164 14.8576 117.225 14.6234 117.287 14.3893C117.35 14.158 117.412 13.9285 117.475 13.6973C117.538 13.4644 117.603 13.233 117.668 13.0015C117.72 12.8163 117.772 12.6327 117.824 12.4491C117.955 11.9955 118.089 11.5415 118.226 11.0902C118.305 10.8313 118.386 10.5722 118.468 10.3129C118.549 10.0536 118.632 9.79583 118.717 9.53766C118.794 9.30762 118.871 9.07758 118.948 8.84754C118.955 8.8274 118.962 8.80747 118.969 8.78733C119.04 8.57722 119.114 8.36669 119.188 8.15616C119.195 8.13447 119.203 8.11277 119.21 8.09263C119.212 8.08599 119.215 8.0809 119.217 8.07581C119.245 7.99567 119.273 7.91708 119.302 7.83829C119.315 7.79998 119.329 7.76302 119.343 7.72451C119.356 7.6862 119.371 7.64748 119.385 7.61052C119.386 7.60564 119.387 7.60232 119.389 7.59723C119.395 7.57574 119.403 7.55405 119.412 7.5337C119.428 7.48854 119.446 7.44317 119.464 7.39936C119.476 7.37215 119.487 7.34516 119.5 7.31951C119.516 7.28078 119.535 7.24319 119.553 7.2056C119.572 7.16956 119.59 7.13374 119.61 7.09749C119.618 7.08046 119.628 7.06478 119.638 7.04754C119.99 6.43384 120.537 5.96685 121.196 5.7347C121.392 5.66387 121.595 5.6175 121.804 5.59249C123.139 5.43378 124.241 6.37007 125.151 7.31484C125.74 7.92923 126.298 8.58777 126.721 9.34006C127.144 10.0892 127.429 10.939 127.446 11.8064Z" fill="#1188EE"/>
<path opacity="0.5" d="M119.219 8.26805L119.218 8.27448C119.024 10.1514 116.215 24.8663 113.535 32.1914C113.268 32.9217 112.991 33.6547 112.666 34.3567C112.417 34.8907 112.141 35.4077 111.816 35.8938C111.748 35.8893 111.679 35.8816 111.611 35.8691C110.774 35.7203 110.017 35.022 109.71 34.1831C109.39 33.3098 109.551 32.3361 109.745 31.4306C109.783 31.2506 109.823 31.0718 109.864 30.893C110.049 30.0762 110.256 29.264 110.48 28.4591C110.652 29.7235 110.896 30.9743 111.244 32.1962C111.365 32.628 111.502 33.0546 111.655 33.474C111.688 33.5693 111.722 33.6628 111.758 33.7561C111.762 33.7634 111.765 33.7725 111.768 33.7801C111.772 33.7715 111.777 33.7644 111.781 33.756C112.678 32.0391 113.292 30.0944 113.82 28.2175C114.52 25.7303 115.139 23.1453 115.735 20.6444C115.923 19.8571 116.113 19.0635 116.306 18.2692C116.393 17.9076 116.482 17.5458 116.571 17.1838C116.694 16.6901 116.818 16.1979 116.944 15.7036C116.996 15.4993 117.049 15.2966 117.102 15.0922C117.164 14.858 117.225 14.6238 117.287 14.3897C117.35 14.1584 117.412 13.9289 117.475 13.6977C117.538 13.4649 117.603 13.2334 117.668 13.0019C117.72 12.8168 117.772 12.6331 117.824 12.4495C117.955 11.9959 118.089 11.5419 118.226 11.0906C118.305 10.8317 118.386 10.5726 118.467 10.3133C118.549 10.054 118.631 9.79625 118.717 9.53809C118.794 9.30805 118.871 9.07801 118.948 8.84797C118.955 8.82783 118.962 8.8079 118.969 8.78776C119.04 8.57765 119.114 8.36712 119.188 8.15659C119.195 8.13489 119.203 8.1132 119.21 8.09306C119.212 8.08641 119.215 8.08133 119.217 8.07624C119.231 8.06947 119.231 8.13607 119.219 8.26805Z" fill="#1188EE"/>
<path opacity="0.5" d="M119.388 7.59744L119.385 7.61052L119.219 8.26762L119.218 8.27405L112.666 34.3563L112.166 36.3434C111.983 36.3155 111.798 36.1421 111.611 35.8687C110.913 34.8396 110.234 32.3905 109.864 30.8926C109.683 30.1597 109.575 29.6545 109.575 29.6545L110.363 27.5119C110.398 27.8291 110.437 28.1442 110.48 28.4587C110.651 29.7231 110.896 30.9739 111.244 32.1957C111.365 32.6276 111.502 33.0542 111.655 33.4736C111.688 33.5688 111.722 33.6624 111.758 33.7556C111.762 33.763 111.765 33.7721 111.768 33.7797C111.772 33.7711 111.777 33.764 111.781 33.7556C112.678 32.0387 113.292 30.094 113.82 28.2171C114.52 25.7299 115.139 23.1448 115.735 20.644C115.923 19.8567 116.113 19.0631 116.306 18.2688C116.393 17.9072 116.482 17.5453 116.571 17.1833C116.694 16.6897 116.818 16.1974 116.944 15.7032C116.996 15.4989 117.049 15.2962 117.102 15.0917C117.164 14.8576 117.225 14.6234 117.287 14.3893C117.35 14.158 117.412 13.9285 117.475 13.6973C117.538 13.4644 117.603 13.233 117.668 13.0015C117.72 12.8163 117.772 12.6327 117.824 12.4491C117.955 11.9955 118.089 11.5415 118.226 11.0902C118.305 10.8313 118.385 10.5722 118.467 10.3129C118.549 10.0536 118.631 9.79583 118.717 9.53766C118.794 9.30762 118.871 9.07758 118.948 8.84755C118.955 8.82741 118.962 8.80748 118.969 8.78733C119.04 8.57723 119.114 8.3667 119.188 8.15617C119.195 8.13447 119.203 8.11277 119.21 8.09263C119.212 8.08599 119.215 8.0809 119.217 8.07581C119.245 7.99567 119.272 7.91709 119.302 7.83829C119.314 7.79999 119.329 7.76303 119.343 7.72451C119.358 7.68267 119.373 7.63928 119.388 7.59744Z" fill="#1188EE"/>
<path opacity="0.5" d="M107.693 13.5993C107.562 13.6482 107.432 13.7111 107.301 13.7997C106.542 14.3064 106.082 15.1721 105.664 16.0095C104.019 19.3028 102.559 22.7015 101.293 26.1806C100.365 28.7368 99.5269 31.3643 98.0971 33.6429C97.7306 34.2285 97.2325 34.8408 96.5616 34.854C96.14 34.8634 95.7479 34.6257 95.3889 34.388C94.7853 33.9868 94.1742 33.5327 93.8417 32.8691C93.6988 32.5847 93.6162 32.2806 93.579 31.9669C93.9573 31.8335 94.3746 31.847 94.7223 32.0577C95.0004 32.2244 95.2091 32.4946 95.4092 32.7581C95.8529 33.3361 96.2837 34.0032 96.8323 34.5043C96.8375 34.4988 96.8413 34.4935 96.8463 34.4864C96.8674 34.4548 96.8916 34.4244 96.9163 34.3859C99.1451 31.1775 100.48 27.4078 101.892 23.4158C102.163 22.6485 102.438 21.8728 102.722 21.0959C102.734 21.0655 102.746 21.0321 102.759 20.9969C102.775 20.9549 102.791 20.9082 102.81 20.8595C103.04 20.2282 103.277 19.5991 103.525 18.9702C103.658 18.6321 103.794 18.2953 103.936 17.9592C103.956 17.9103 103.973 17.8649 103.988 17.8295C103.995 17.8158 104 17.8007 104.006 17.7872C104.008 17.7806 104.012 17.7737 104.014 17.7671C104.11 17.5359 104.208 17.306 104.308 17.0759C104.624 16.3514 104.957 15.6357 105.313 14.931C105.785 14.0001 106.714 13.493 107.693 13.5993Z" fill="#1188EE"/>
<path opacity="0.5" d="M107.746 13.6067C107.092 14.1761 106.678 14.994 106.301 15.7795C103.96 20.6499 102.154 25.7885 100.084 30.7965C99.6911 31.7462 99.2865 32.6976 98.7442 33.559C98.371 34.1504 97.9129 34.7157 97.295 35.0055C96.2667 35.4887 94.9749 35.0635 94.2044 34.1782C93.7057 33.6049 93.4019 32.8784 93.2627 32.1142C93.2642 32.1139 93.2655 32.1122 93.2669 32.112C93.3652 32.0519 93.4712 32.0035 93.5789 31.9675C93.9573 31.8341 94.3746 31.8476 94.7222 32.0583C95.0004 32.225 95.209 32.4952 95.4091 32.7587C95.8528 33.3367 96.2836 34.0038 96.8322 34.5049C96.8375 34.4993 96.8412 34.494 96.8462 34.487C96.8673 34.4554 96.8916 34.425 96.9162 34.3865C99.145 31.1781 100.479 27.4083 101.892 23.4164C102.163 22.6491 102.438 21.8734 102.722 21.0964C102.734 21.0661 102.746 21.0327 102.759 20.9975C102.775 20.9555 102.791 20.9087 102.81 20.8601C103.04 20.2288 103.277 19.5997 103.525 18.9708C103.658 18.6326 103.794 18.2958 103.936 17.9598C103.956 17.9109 103.973 17.8655 103.988 17.8301C103.995 17.8164 104 17.8013 104.006 17.7878C104.008 17.7812 104.012 17.7743 104.014 17.7677C104.11 17.5365 104.208 17.3066 104.308 17.0765C104.624 16.352 104.957 15.6363 105.313 14.9316C105.785 14.0007 106.713 13.4936 107.693 13.5998C107.71 13.6022 107.728 13.6028 107.746 13.6067Z" fill="#1188EE"/>
<path d="M114.645 36.6533C114.584 36.6857 114.513 36.8529 114.462 36.9476C114.386 37.0664 114.306 37.1841 114.223 37.2975C114.114 37.4481 113.998 37.5948 113.874 37.733C113.767 37.8531 113.655 37.9675 113.535 38.0735C112.497 38.9978 111.017 39.1835 109.894 38.2644C109.552 37.9847 109.268 37.6204 109.052 37.1845C109.004 37.0882 108.957 36.9933 108.912 36.8966C108.508 36.0479 108.167 35.1822 107.883 34.3149C107.877 34.2998 107.874 34.286 107.869 34.2724C107.666 33.6537 107.486 33.0254 107.33 32.3922C107.25 32.075 107.178 31.7568 107.109 31.4379C107.041 31.1191 106.978 30.7996 106.92 30.4777C106.896 30.3461 106.873 30.2161 106.85 30.0845C106.832 29.9807 106.815 29.8784 106.798 29.7744C106.563 28.343 106.397 26.8857 106.343 25.4442C106.343 25.43 106.34 25.4144 106.34 25.4002C106.289 24.5456 106.261 23.6861 106.24 22.835C106.241 22.8175 106.24 22.8017 106.239 22.7875C106.239 22.7733 106.242 22.7174 106.248 22.6291C106.3 21.5123 106.605 16.0863 107.834 14.8093C108.334 14.2904 108.8 14.2001 109.193 14.3408C109.202 14.3427 109.21 14.3463 109.22 14.3497C109.269 14.4014 109.318 14.4548 109.363 14.5118C109.402 14.5587 109.437 14.606 109.473 14.6565C109.492 14.6839 109.509 14.7116 109.528 14.739C109.53 14.7419 109.531 14.745 109.534 14.7477C109.567 14.8017 109.599 14.8559 109.63 14.9119C109.646 14.9413 109.661 14.9709 109.675 15.0006C109.679 15.0079 109.682 15.0139 109.686 15.0213L109.686 15.0228C109.697 15.0436 109.707 15.0627 109.716 15.0821C109.72 15.0926 109.724 15.1015 109.729 15.1104C109.813 15.3031 109.876 15.51 109.914 15.7252C109.936 15.8459 109.949 15.9694 109.955 16.094C109.971 16.4535 109.985 16.8135 109.996 17.1723C109.999 17.3146 110.004 17.4552 110.008 17.5975C110.014 17.8157 110.018 18.0342 110.022 18.2511C110.035 18.9682 110.042 19.6815 110.049 20.3821C110.06 21.5885 110.071 22.8235 110.117 24.0374C110.123 24.1826 110.129 24.3279 110.136 24.4713C110.141 24.6165 110.148 24.7616 110.157 24.9048C110.162 25.0183 110.168 25.1318 110.175 25.2435C110.176 25.275 110.18 25.3079 110.181 25.3394C110.197 25.6006 110.216 25.8598 110.237 26.1139C110.244 26.2099 110.253 26.3038 110.26 26.398C110.266 26.4924 110.275 26.5848 110.285 26.677C110.297 26.8134 110.31 26.948 110.323 27.0827C110.336 27.2157 110.35 27.3486 110.365 27.4799C110.382 27.6472 110.403 27.8125 110.423 27.9763C110.441 28.134 110.462 28.2898 110.484 28.4438C110.732 30.2576 111.134 32.0621 111.769 33.7779C111.906 34.1503 112.055 34.5195 112.216 34.884C112.338 35.1602 112.465 35.4404 112.628 35.695C112.647 35.724 112.665 35.7548 112.686 35.7851C112.739 35.8648 112.796 35.9456 112.857 36.0226C113.006 36.2156 113.176 36.393 113.373 36.5299C113.677 36.7405 114.061 36.8492 114.41 36.7502C114.493 36.7274 114.571 36.694 114.645 36.6533Z" fill="#1188EE"/>
<path opacity="0.5" d="M114.645 36.6529C114.584 36.6853 114.514 36.8526 114.462 36.9472C114.386 37.066 114.306 37.1837 114.223 37.2972C113.538 37.2188 112.855 36.9036 112.32 36.4339C111.315 35.5503 110.742 34.2383 110.336 32.9328C109.419 29.9779 109.185 26.8414 109.227 23.7466C109.264 20.8334 109.541 17.932 109.686 15.0225C109.697 15.0432 109.707 15.0624 109.716 15.0818C109.72 15.0922 109.724 15.1012 109.729 15.1101C109.813 15.3027 109.876 15.5097 109.914 15.7249C109.936 15.8456 109.949 15.9691 109.955 16.0937C109.972 16.4532 109.985 16.8131 109.996 17.1719C110 17.3143 110.005 17.4548 110.008 17.5971C110.014 17.8154 110.018 18.0339 110.022 18.2508C110.035 18.9679 110.042 19.6812 110.049 20.3818C110.06 21.5881 110.071 22.8231 110.117 24.0371C110.123 24.1823 110.129 24.3275 110.136 24.471C110.141 24.6162 110.148 24.7612 110.157 24.9044C110.162 25.0179 110.168 25.1314 110.175 25.2431C110.177 25.2746 110.18 25.3075 110.181 25.3391C110.197 25.6002 110.216 25.8594 110.238 26.1136C110.244 26.2095 110.253 26.3035 110.26 26.3977C110.266 26.492 110.275 26.5845 110.285 26.6767C110.297 26.813 110.31 26.9477 110.323 27.0823C110.336 27.2154 110.35 27.3482 110.365 27.4795C110.383 27.6468 110.403 27.8121 110.423 27.9759C110.441 28.1337 110.462 28.2894 110.484 28.4434C110.732 30.2572 111.134 32.0617 111.769 33.7775C111.906 34.15 112.055 34.5192 112.216 34.8836C112.338 35.1598 112.465 35.4401 112.628 35.6946C112.647 35.7236 112.665 35.7544 112.686 35.7848C112.74 35.8644 112.796 35.9452 112.857 36.0223C113.006 36.2153 113.176 36.3926 113.373 36.5296C113.677 36.7402 114.061 36.8488 114.41 36.7499C114.493 36.727 114.571 36.6937 114.645 36.6529Z" fill="#1188EE"/>
<path opacity="0.5" d="M114.645 36.6531C114.585 36.6855 114.514 36.8528 114.462 36.9474C114.386 37.0662 114.306 37.1839 114.223 37.2973C114.114 37.4479 113.998 37.5946 113.875 37.7328C113.645 37.7386 113.414 37.7128 113.191 37.6542C112.243 37.4037 111.46 36.6551 110.945 35.7778C110.43 34.9005 110.152 33.8974 109.916 32.8993C108.531 27.0445 108.453 20.8732 109.686 15.0211L109.686 15.0227C109.697 15.0434 109.707 15.0626 109.716 15.0819C109.72 15.0924 109.724 15.1013 109.729 15.1102C109.813 15.3029 109.876 15.5098 109.914 15.725C109.936 15.8457 109.949 15.9693 109.955 16.0938C109.972 16.4534 109.985 16.8133 109.996 17.1721C110 17.3144 110.005 17.455 110.008 17.5973C110.014 17.8156 110.018 18.034 110.022 18.2509C110.035 18.968 110.042 19.6813 110.049 20.382C110.06 21.5883 110.071 22.8233 110.117 24.0372C110.123 24.1825 110.129 24.3277 110.136 24.4711C110.141 24.6164 110.149 24.7614 110.157 24.9046C110.163 25.0181 110.168 25.1316 110.175 25.2433C110.177 25.2748 110.18 25.3077 110.181 25.3392C110.197 25.6004 110.216 25.8596 110.238 26.1137C110.244 26.2097 110.253 26.3036 110.26 26.3978C110.266 26.4922 110.275 26.5846 110.285 26.6768C110.297 26.8132 110.31 26.9478 110.323 27.0825C110.336 27.2155 110.351 27.3484 110.365 27.4797C110.383 27.647 110.403 27.8123 110.424 27.9761C110.442 28.1338 110.462 28.2896 110.484 28.4436C110.732 30.2574 111.134 32.0619 111.769 33.7777C111.906 34.1501 112.055 34.5194 112.216 34.8838C112.338 35.16 112.465 35.4402 112.628 35.6948C112.647 35.7238 112.665 35.7546 112.686 35.7849C112.74 35.8646 112.796 35.9454 112.857 36.0225C113.006 36.2154 113.176 36.3928 113.373 36.5297C113.677 36.7403 114.062 36.849 114.41 36.7501C114.493 36.7272 114.571 36.6938 114.645 36.6531Z" fill="#1188EE"/>
<path d="M101.943 33.604C101.622 34.2252 101.282 34.8362 100.921 35.4316C100.718 35.7669 100.51 36.1085 100.289 36.4405C100.215 36.5525 100.139 36.6634 100.061 36.7736C99.6792 37.3103 99.2508 37.807 98.73 38.1887C98.2264 38.5599 97.6333 38.8146 97.0156 38.8514C96.0269 38.9109 95.0742 38.4179 94.2517 37.8237C93.8379 37.524 93.4396 37.1942 93.113 36.7935C92.4414 35.9715 92.0794 34.6349 92.3331 33.5261C92.4181 33.1471 92.5766 32.7948 92.8184 32.4995C92.8304 32.4827 92.8435 32.4669 92.8569 32.4521C93.3157 31.9219 94.1227 31.695 94.7222 32.0579C95.0002 32.2255 95.2087 32.4952 95.4096 32.7587C95.8522 33.3373 96.2841 34.0036 96.8328 34.5053C96.8374 34.4988 96.8411 34.4937 96.8457 34.4871C96.8833 34.5494 96.925 34.6098 96.9716 34.6649C97.1351 34.8582 97.3548 34.9899 97.581 35.0892C98.0476 35.2952 98.5611 35.3792 99.061 35.3311C99.7931 35.2604 100.478 34.9133 101.06 34.4495C101.378 34.1958 101.669 33.9087 101.943 33.604Z" fill="#1188EE"/>
<path opacity="0.5" d="M100.289 36.4404C99.8505 37.1028 99.3568 37.7288 98.7299 38.1886C98.2263 38.5598 97.6332 38.8144 97.0155 38.8513C96.0267 38.9108 95.0741 38.4178 94.2515 37.8236C93.8378 37.5239 93.4394 37.194 93.1128 36.7933C92.2113 35.6909 91.8687 33.6609 92.8182 32.4994C93.0813 33.128 93.5012 33.6948 93.9252 34.2283C94.4094 34.8358 94.9151 35.431 95.5062 35.9209C96.0987 36.4118 96.7848 36.7948 97.5237 36.927C98.1302 37.0362 98.7541 36.974 99.3443 36.807C99.6693 36.7152 99.9863 36.592 100.289 36.4404Z" fill="#1188EE"/>
<path opacity="0.5" d="M100.061 36.7733C99.6791 37.31 99.2507 37.8066 98.7299 38.1884C98.2263 38.5596 97.6332 38.8142 97.0155 38.8511C96.0267 38.9106 95.0741 38.4176 94.2516 37.8234C93.8378 37.5237 93.4394 37.1939 93.1129 36.7932C92.4413 35.9712 92.0793 34.6346 92.333 33.5257C92.7505 34.6482 93.5023 35.6533 94.3218 36.5205C94.6081 36.8244 94.9099 37.1203 95.2659 37.3246C95.5951 37.5117 95.9612 37.6155 96.3298 37.6759C97.3883 37.8498 98.4912 37.6691 99.4397 37.1659C99.6554 37.0513 99.8631 36.9204 100.061 36.7733Z" fill="#1188EE"/>
<path d="M108.912 36.897C108.846 36.7582 108.782 36.6189 108.719 36.4792C108.783 36.6185 108.845 36.758 108.912 36.897Z" fill="#1188EE"/>
<path d="M127.446 11.8068C127.449 11.9251 127.445 12.0469 127.435 12.1682C127.396 12.6407 127.269 13.1224 127.059 13.5552C126.909 13.8644 126.716 14.1494 126.484 14.3874C126.303 14.5738 126.095 14.7317 125.867 14.8515C125.464 15.0615 124.983 15.1281 124.551 14.9775C123.763 14.7022 123.579 13.9469 123.458 13.1897C123.318 12.3187 123.237 11.4031 122.813 10.6182C122.789 10.5738 122.76 10.5301 122.731 10.4888C122.684 10.4233 122.636 10.3604 122.586 10.2998C122.586 10.2998 122.586 10.2998 122.585 10.2989C122.578 10.2894 122.416 10.1157 122.333 10.0437C121.908 9.67821 121.34 9.52271 120.796 9.55838C120.253 9.59515 119.732 9.81391 119.278 10.1256C118.887 10.3934 118.543 10.729 118.227 11.0909C118.385 10.5722 118.548 10.0539 118.717 9.53833C118.877 9.0543 119.04 8.57338 119.211 8.09233C119.213 8.0875 119.215 8.08128 119.217 8.07648C119.245 7.99796 119.274 7.91805 119.302 7.83953C119.33 7.75868 119.36 7.67876 119.389 7.59776C119.396 7.57693 119.404 7.55486 119.412 7.53385C119.429 7.4883 119.447 7.44382 119.465 7.39937C119.476 7.37215 119.488 7.34605 119.501 7.31976C119.516 7.28136 119.535 7.24373 119.553 7.20627C119.572 7.16974 119.59 7.13337 119.611 7.09792C119.619 7.08143 119.629 7.06497 119.638 7.04863C119.791 6.7822 119.981 6.54317 120.2 6.33948C120.487 6.07272 120.824 5.86621 121.196 5.73499C121.244 5.71778 121.292 5.70273 121.341 5.6888C121.491 5.64291 121.646 5.61151 121.803 5.59254C123.139 5.43449 124.242 6.37074 125.151 7.31611C125.741 7.92953 126.298 8.58851 126.721 9.33988C127.144 10.0901 127.429 10.9392 127.446 11.8068Z" fill="#1188EE"/>
<path opacity="0.5" d="M127.446 11.8066C127.449 11.925 127.445 12.0468 127.435 12.1681C127.396 12.6406 127.269 13.1223 127.059 13.5551C126.988 13.1612 126.906 12.7687 126.806 12.3811C126.374 10.7271 125.575 9.1664 124.448 7.91673C123.578 6.95196 122.511 6.17704 121.341 5.68836C121.491 5.64248 121.646 5.61107 121.803 5.5921C123.139 5.43406 124.242 6.37031 125.151 7.31567C125.741 7.9291 126.298 8.58808 126.721 9.33945C127.144 10.0899 127.429 10.939 127.446 11.8066Z" fill="#1188EE"/>
<path opacity="0.5" d="M127.446 11.8068C127.449 11.9252 127.445 12.047 127.435 12.1683C127.396 12.6408 127.269 13.1225 127.06 13.5553C126.909 13.8645 126.716 14.1494 126.484 14.3874C125.979 12.2069 124.951 10.1536 123.519 8.477C123.029 7.90411 122.487 7.36865 121.861 6.97013C121.353 6.64655 120.784 6.41452 120.2 6.33941C120.487 6.07265 120.824 5.86614 121.196 5.73492C121.244 5.71771 121.292 5.70266 121.341 5.68873C121.491 5.64284 121.646 5.61144 121.803 5.59247C123.139 5.43442 124.242 6.37067 125.151 7.31604C125.741 7.92946 126.298 8.58844 126.721 9.33981C127.144 10.0901 127.43 10.9392 127.446 11.8068Z" fill="#1188EE"/>
</svg>
