<svg width="180" height="45" viewBox="0 0 180 45" fill="none" xmlns="http://www.w3.org/2000/svg">
<path d="M38.13 37.84C35.218 37.84 32.978 37.336 31.41 36.328C29.842 35.292 29.058 33.78 29.058 31.792C29.058 30.784 29.394 29.958 30.066 29.314C30.766 28.642 31.662 28.306 32.754 28.306C33.482 28.334 33.986 28.516 34.266 28.852C34.574 29.188 34.728 29.44 34.728 29.608C34.728 29.664 34.602 29.762 34.35 29.902C34.098 30.014 33.846 30.238 33.594 30.574C33.342 30.882 33.216 31.372 33.216 32.044C33.216 33.304 33.608 34.312 34.392 35.068C35.176 35.796 36.422 36.16 38.13 36.16C39.334 36.16 40.356 35.936 41.196 35.488C42.064 35.012 42.722 34.41 43.17 33.682C43.618 32.926 43.842 32.156 43.842 31.372C43.842 30.196 43.506 29.23 42.834 28.474C42.162 27.718 41.28 27.074 40.188 26.542C39.124 25.982 37.99 25.45 36.786 24.946C35.582 24.442 34.434 23.868 33.342 23.224C32.278 22.58 31.396 21.782 30.696 20.83C29.996 19.85 29.632 18.632 29.604 17.176C29.576 15.412 29.954 13.984 30.738 12.892C31.522 11.772 32.614 10.96 34.014 10.456C35.414 9.924 36.968 9.658 38.676 9.658C39.936 9.658 41.168 9.84 42.372 10.204C43.604 10.568 44.612 11.142 45.396 11.926C46.208 12.682 46.614 13.69 46.614 14.95C46.614 15.958 46.264 16.798 45.564 17.47C44.892 18.114 44.01 18.436 42.918 18.436C42.19 18.38 41.672 18.198 41.364 17.89C41.084 17.554 40.944 17.302 40.944 17.134C40.944 17.05 41.112 16.952 41.448 16.84C41.784 16.7 42.12 16.476 42.456 16.168C42.792 15.832 42.96 15.342 42.96 14.698C42.96 13.634 42.554 12.822 41.742 12.262C40.93 11.674 39.922 11.38 38.718 11.38C36.898 11.38 35.568 11.814 34.728 12.682C33.916 13.522 33.51 14.474 33.51 15.538C33.51 16.574 33.79 17.414 34.35 18.058C34.91 18.702 35.75 19.332 36.87 19.948C38.13 20.62 39.404 21.25 40.692 21.838C41.98 22.398 43.17 23.028 44.262 23.728C45.382 24.428 46.278 25.31 46.95 26.374C47.622 27.41 47.958 28.754 47.958 30.406C47.958 31.834 47.51 33.108 46.614 34.228C45.746 35.348 44.57 36.23 43.086 36.874C41.602 37.518 39.95 37.84 38.13 37.84ZM59.3925 37.504C57.4885 37.504 55.9765 36.93 54.8565 35.782C53.7365 34.634 53.1765 33.122 53.1765 31.246V23.476C53.1765 22.972 53.1485 22.51 53.0925 22.09C53.0645 21.642 52.9105 21.292 52.6305 21.04C52.3505 20.76 51.8185 20.62 51.0345 20.62C50.7825 20.62 50.5445 20.592 50.3205 20.536C50.1245 20.452 50.0265 20.2 50.0265 19.78C50.0265 19.36 50.2505 19.108 50.6985 19.024C51.9865 18.828 52.9665 18.632 53.6385 18.436C54.3385 18.24 54.8705 18.072 55.2345 17.932C55.5985 17.792 55.9205 17.708 56.2005 17.68C56.4245 17.652 56.6065 17.694 56.7465 17.806C56.9145 17.918 56.9985 18.142 56.9985 18.478V31.204C56.9985 32.128 57.1945 32.884 57.5865 33.472C58.0065 34.06 58.5245 34.494 59.1405 34.774C59.7565 35.054 60.3865 35.194 61.0305 35.194C62.0105 35.194 62.8645 35.026 63.5925 34.69C64.3205 34.326 64.9085 33.92 65.3565 33.472C65.8045 32.996 66.0985 32.604 66.2385 32.296V23.476C66.2385 22.972 66.2105 22.51 66.1545 22.09C66.1265 21.642 65.9725 21.292 65.6925 21.04C65.4125 20.76 64.8805 20.62 64.0965 20.62C63.8445 20.62 63.6065 20.592 63.3825 20.536C63.1865 20.452 63.0885 20.2 63.0885 19.78C63.0885 19.36 63.3125 19.108 63.7605 19.024C65.0485 18.828 66.0285 18.632 66.7005 18.436C67.4005 18.24 67.9325 18.072 68.2965 17.932C68.6605 17.792 68.9825 17.708 69.2625 17.68C69.4865 17.652 69.6685 17.694 69.8085 17.806C69.9765 17.918 70.0605 18.142 70.0605 18.478V33.01C70.0605 34.662 71.1665 35.488 73.3785 35.488C73.6865 35.488 73.8825 35.572 73.9665 35.74C74.0505 35.908 74.0925 36.09 74.0925 36.286C74.0925 36.678 73.8545 36.916 73.3785 37L66.6165 37.462C66.4205 37.462 66.3085 37.378 66.2805 37.21C66.2525 37.042 66.2385 36.846 66.2385 36.622V34.27H66.1545C65.6225 34.774 65.0485 35.278 64.4325 35.782C63.8445 36.286 63.1445 36.692 62.3325 37C61.5485 37.336 60.5685 37.504 59.3925 37.504ZM76.39 37.126C76.194 37.126 76.026 37.042 75.886 36.874C75.774 36.678 75.718 36.482 75.718 36.286C75.774 35.866 75.886 35.642 76.054 35.614C76.222 35.558 76.446 35.53 76.726 35.53C77.51 35.53 78.042 35.404 78.322 35.152C78.602 34.872 78.756 34.508 78.784 34.06C78.84 33.612 78.868 33.15 78.868 32.674V23.056C78.868 22.552 78.84 22.09 78.784 21.67C78.756 21.222 78.602 20.872 78.322 20.62C78.042 20.34 77.51 20.2 76.726 20.2C76.474 20.2 76.236 20.172 76.012 20.116C75.816 20.032 75.718 19.78 75.718 19.36C75.718 18.94 75.942 18.688 76.39 18.604C77.678 18.408 78.658 18.212 79.33 18.016C80.03 17.82 80.548 17.652 80.884 17.512C81.248 17.372 81.57 17.288 81.85 17.26C82.074 17.232 82.256 17.274 82.396 17.386C82.564 17.498 82.648 17.722 82.648 18.058V20.662H82.774C83.726 19.738 84.706 18.982 85.714 18.394C86.722 17.778 87.646 17.47 88.486 17.47C89.466 17.47 90.208 17.834 90.712 18.562C91.244 19.29 91.51 20.06 91.51 20.872C91.51 21.572 91.286 22.258 90.838 22.93C90.39 23.574 89.718 23.896 88.822 23.896C88.374 23.896 88.01 23.812 87.73 23.644C87.478 23.448 87.338 23.308 87.31 23.224C87.31 23.168 87.436 23 87.688 22.72C87.968 22.44 88.108 22.09 88.108 21.67C88.108 21.166 87.968 20.76 87.688 20.452C87.436 20.144 87.086 19.99 86.638 19.99C86.162 19.99 85.546 20.228 84.79 20.704C84.062 21.18 83.362 21.754 82.69 22.426V32.674C82.69 33.15 82.704 33.612 82.732 34.06C82.788 34.508 82.956 34.872 83.236 35.152C83.544 35.404 84.09 35.53 84.874 35.53C85.126 35.53 85.336 35.558 85.504 35.614C85.7 35.642 85.812 35.866 85.84 36.286C85.84 36.482 85.784 36.678 85.672 36.874C85.56 37.042 85.392 37.126 85.168 37.126C84.356 37.07 83.6 37.028 82.9 37C82.228 37 81.514 37 80.758 37C80.002 37 79.288 37 78.616 37C77.944 37.028 77.202 37.07 76.39 37.126ZM94.6098 37.126C94.3858 37.126 94.2178 37.042 94.1058 36.874C93.9938 36.678 93.9378 36.482 93.9378 36.286C93.9658 35.866 94.0638 35.642 94.2318 35.614C94.3998 35.558 94.6238 35.53 94.9038 35.53C95.6878 35.53 96.2198 35.404 96.4998 35.152C96.8078 34.872 96.9758 34.508 97.0038 34.06C97.0318 33.612 97.0458 33.15 97.0458 32.674V19.612H94.2318C94.0078 19.612 93.8258 19.528 93.6858 19.36C93.5738 19.164 93.5178 18.968 93.5178 18.772C93.5458 18.324 93.6438 18.086 93.8118 18.058C94.0078 18.002 94.2458 17.974 94.5258 17.974H97.0458V16.21C97.0458 14.334 97.3398 12.668 97.9278 11.212C98.5158 9.756 99.3838 8.594 100.532 7.726C101.708 6.858 103.136 6.41 104.816 6.382C105.684 6.382 106.524 6.55 107.336 6.886C108.148 7.222 108.82 7.698 109.352 8.314C109.884 8.902 110.15 9.63 110.15 10.498C110.15 11.282 109.912 12.01 109.436 12.682C108.96 13.326 108.274 13.648 107.378 13.648C106.79 13.648 106.328 13.494 105.992 13.186C105.684 12.878 105.53 12.668 105.53 12.556C105.53 12.472 105.642 12.346 105.866 12.178C106.118 11.982 106.356 11.702 106.58 11.338C106.832 10.974 106.958 10.526 106.958 9.994C106.958 9.378 106.72 8.86 106.244 8.44C105.796 7.992 105.222 7.768 104.522 7.768C103.598 7.768 102.884 8.048 102.38 8.608C101.876 9.168 101.526 9.868 101.33 10.708C101.134 11.548 101.008 12.402 100.952 13.27C100.924 14.138 100.91 14.866 100.91 15.454V17.974H105.026C105.306 17.974 105.544 18.002 105.74 18.058C105.936 18.086 106.048 18.324 106.076 18.772C106.076 18.968 106.006 19.164 105.866 19.36C105.754 19.528 105.586 19.612 105.362 19.612H100.91V32.674C100.91 33.486 100.966 34.102 101.078 34.522C101.218 34.942 101.498 35.222 101.918 35.362C102.366 35.474 103.024 35.53 103.892 35.53C104.172 35.53 104.396 35.558 104.564 35.614C104.732 35.642 104.83 35.866 104.858 36.286C104.858 36.482 104.802 36.678 104.69 36.874C104.606 37.042 104.452 37.126 104.228 37.126C103.416 37.07 102.52 37.028 101.54 37C100.56 37 99.7058 37 98.9778 37C98.2218 37 97.5078 37 96.8358 37C96.1638 37.028 95.4218 37.07 94.6098 37.126ZM144.621 37.504C142.913 37.504 141.541 37.014 140.505 36.034C139.497 35.054 138.993 33.878 138.993 32.506C138.993 31.078 139.357 29.958 140.085 29.146C140.841 28.334 141.821 27.732 143.025 27.34C144.257 26.948 145.587 26.682 147.015 26.542C148.471 26.402 149.885 26.29 151.257 26.206V22.888C151.257 21.572 150.921 20.55 150.249 19.822C149.605 19.066 148.499 18.688 146.931 18.688C146.147 18.688 145.405 18.94 144.705 19.444C144.033 19.948 143.697 20.676 143.697 21.628C143.697 22.076 143.809 22.454 144.033 22.762C144.257 23.07 144.481 23.308 144.705 23.476C144.929 23.644 145.041 23.756 145.041 23.812C145.041 23.924 144.873 24.134 144.537 24.442C144.229 24.722 143.795 24.862 143.235 24.862C142.367 24.862 141.695 24.54 141.219 23.896C140.743 23.252 140.505 22.538 140.505 21.754C140.505 20.69 140.827 19.85 141.471 19.234C142.143 18.618 142.997 18.17 144.033 17.89C145.069 17.61 146.119 17.47 147.183 17.47C148.443 17.47 149.661 17.624 150.837 17.932C152.041 18.24 153.021 18.828 153.777 19.696C154.561 20.564 154.953 21.866 154.953 23.602V33.388C154.981 33.668 155.051 34.004 155.163 34.396C155.275 34.788 155.485 35.138 155.793 35.446C156.129 35.726 156.577 35.866 157.137 35.866C157.333 35.866 157.487 35.908 157.599 35.992C157.711 36.048 157.767 36.23 157.767 36.538C157.767 36.79 157.627 36.986 157.347 37.126C157.067 37.266 156.745 37.364 156.381 37.42C156.017 37.476 155.709 37.504 155.457 37.504C154.421 37.504 153.497 37.21 152.685 36.622C151.873 36.006 151.397 35.166 151.257 34.102C150.641 35.222 149.717 36.076 148.485 36.664C147.281 37.224 145.993 37.504 144.621 37.504ZM145.965 35.236C146.917 35.236 147.785 34.998 148.569 34.522C149.381 34.046 150.025 33.402 150.501 32.59C151.005 31.75 151.257 30.826 151.257 29.818V27.424C148.373 27.62 146.315 28.082 145.083 28.81C143.851 29.538 143.235 30.728 143.235 32.38C143.235 34.284 144.145 35.236 145.965 35.236ZM167.391 37.714C166.551 37.714 165.753 37.504 164.997 37.084C164.241 36.664 163.611 36.02 163.107 35.152C162.631 34.284 162.393 33.192 162.393 31.876V19.528L159.957 19.612C159.761 19.612 159.607 19.542 159.495 19.402C159.411 19.234 159.369 19.052 159.369 18.856C159.369 18.296 159.565 17.974 159.957 17.89C160.993 17.694 161.777 17.372 162.309 16.924C162.841 16.448 163.247 15.888 163.527 15.244C163.835 14.6 164.115 13.9 164.367 13.144C164.451 12.92 164.577 12.78 164.745 12.724C164.913 12.64 165.095 12.598 165.291 12.598C165.459 12.598 165.641 12.64 165.837 12.724C166.061 12.808 166.173 12.962 166.173 13.186L165.879 17.974L170.793 17.68C171.045 17.652 171.213 17.722 171.297 17.89C171.381 18.058 171.423 18.254 171.423 18.478C171.423 18.758 171.367 19.038 171.255 19.318C171.171 19.598 171.059 19.738 170.919 19.738L166.215 19.612V32.38C166.215 33.192 166.383 33.934 166.719 34.606C167.083 35.278 167.727 35.614 168.651 35.614C168.959 35.614 169.309 35.586 169.701 35.53C170.093 35.474 170.513 35.348 170.961 35.152C171.073 35.096 171.185 35.054 171.297 35.026C171.409 34.97 171.521 34.942 171.633 34.942C171.857 34.942 172.025 35.04 172.137 35.236C172.249 35.404 172.347 35.586 172.431 35.782C172.515 36.034 172.445 36.23 172.221 36.37C171.353 36.93 170.555 37.294 169.827 37.462C169.099 37.63 168.287 37.714 167.391 37.714Z" fill="white"/>
<path fill-rule="evenodd" clip-rule="evenodd" d="M7.79499 6.82265C8.21672 6.47578 8.78325 6.47578 9.20504 6.82265C14.4586 11.1435 16.8403 16.3234 16.9904 23.7553C17.0597 27.304 16.763 30.5534 15.86 33.3603C14.934 36.169 13.2871 38.7639 10.8626 40.9553C10.5567 41.2296 10.1553 41.319 9.78257 41.1958C9.04 40.9503 8.91361 39.9368 8.49999 39.3051C8.08616 39.9372 7.96054 40.9501 7.21741 41.1958C6.84472 41.319 6.44336 41.2296 6.13745 40.9553C3.71286 38.7639 2.06606 36.169 1.13994 33.3603C0.237013 30.5534 -0.0596477 27.304 0.00964549 23.7553C0.159749 16.3234 2.54138 11.1435 7.79499 6.82265ZM10.511 37.7542C12.0282 36.148 12.9424 34.3953 13.5884 32.3802C14.4012 29.9157 14.6356 27.194 14.5651 23.8202C14.4481 18.0252 13.2704 14.2539 9.70235 10.7524V20.9945C11.0974 21.4079 11.7239 22.9835 11.7239 24.7188C11.7239 26.4542 11.0974 28.0298 9.70235 28.4432V36.8231C9.70235 36.8231 10.3506 37.5112 10.511 37.7542ZM6.46776 37.7542C4.95052 36.148 4.05764 34.3953 3.41158 32.3802C2.59887 29.9157 2.36438 27.194 2.4349 23.8202C2.55171 18.0368 3.7233 14.2493 7.2764 10.7524V20.9945C5.88131 21.4079 5.25481 22.9835 5.25481 24.7188C5.25481 26.4542 5.88131 28.0298 7.2764 28.4432V36.8231C7.2764 36.8231 6.62211 37.5202 6.46776 37.7542ZM8.48939 22.8567C7.59616 22.8567 6.87208 23.6904 6.87208 24.7188C6.87208 25.7473 7.59616 26.581 8.48939 26.581C9.38253 26.581 10.1067 25.7473 10.1067 24.7188C10.1067 23.6904 9.38253 22.8567 8.48939 22.8567Z" fill="white"/>
<path d="M144.528 10.5239C144.529 10.6428 144.524 10.7642 144.513 10.8864C144.411 11.9652 143.817 13.0909 142.833 13.5792C142.407 13.7911 141.898 13.8607 141.446 13.7115C140.618 13.4402 140.433 12.6854 140.312 11.928C140.171 11.0307 140.095 10.0878 139.621 9.28927C139.557 9.20309 139.492 9.11846 139.422 9.03781C139.415 9.02935 139.409 9.02066 139.4 9.01086C139.398 9.01263 139.398 9.01419 139.399 9.01575C139.398 9.01908 139.395 9.02262 139.395 9.02574C138.032 12.7342 137.008 16.6506 136.015 20.4501C135.348 22.9965 134.661 25.6281 133.873 28.2026C133.382 29.8008 132.846 31.3895 132.154 32.9129C131.817 33.6518 131.446 34.3749 131.026 35.0715C130.947 35.2015 130.869 35.33 130.785 35.4591C130.723 35.5582 130.657 35.6578 130.59 35.7545C130.306 36.1704 129.987 36.5593 129.601 36.8862C128.499 37.8164 126.937 38.0095 125.764 37.0948C125.406 36.8165 125.111 36.4532 124.888 36.0178C124.838 35.9217 124.79 35.8269 124.743 35.7303C124.326 34.8827 123.976 34.0177 123.685 33.1508C123.68 33.1357 123.677 33.1219 123.671 33.1083C123.458 32.4797 123.278 31.8512 123.123 31.2287C123.042 30.9085 122.967 30.5905 122.9 30.2745C122.83 29.9512 122.767 29.6299 122.71 29.3142C122.687 29.1825 122.664 29.0525 122.641 28.9209C122.623 28.817 122.606 28.7147 122.59 28.6107C122.337 27.0086 122.223 25.522 122.155 24.278C122.154 24.2638 122.152 24.2482 122.152 24.234C122.107 23.3788 122.086 22.5185 122.073 21.6666C122.074 21.6491 122.073 21.6333 122.073 21.6191C122.072 21.624 122.069 21.6275 122.069 21.6324C122.056 21.6644 122.043 21.6979 122.03 21.7298C122.014 21.7669 122.001 21.8053 121.986 21.8439C121.746 22.4582 121.508 23.0817 121.267 23.7137C121.184 23.9284 121.103 24.1413 121.021 24.3541C120.15 26.6293 119.257 28.9025 118.165 31.0833C117.932 31.549 117.69 32.0113 117.435 32.4674C117.09 33.09 116.726 33.7043 116.34 34.301C115.689 35.3076 115.001 36.3766 114.003 37.0715C113.468 37.4462 112.841 37.7038 112.19 37.7441C111.147 37.8076 110.149 37.319 109.289 36.7285C108.855 36.4306 108.439 36.1016 108.099 35.7018C107.149 34.5893 106.811 32.5183 107.874 31.3573C107.947 31.2772 108.028 31.2039 108.116 31.1393C108.177 31.0959 108.239 31.0539 108.305 31.0176C108.307 31.0174 108.308 31.0156 108.31 31.0154C108.414 30.9548 108.526 30.9058 108.64 30.8692C109.04 30.7339 109.479 30.7454 109.844 30.9546C110.135 31.1201 110.352 31.3897 110.56 31.6525C111.021 32.2289 111.468 32.8947 112.041 33.3936C112.047 33.3881 112.051 33.3828 112.056 33.3757C112.079 33.344 112.105 33.3134 112.131 33.2748C114.512 30.0522 115.957 26.272 117.486 22.2689C117.78 21.4995 118.078 20.7217 118.384 19.9425C118.397 19.9121 118.41 19.8786 118.424 19.8433C118.442 19.8011 118.459 19.7543 118.48 19.7055C118.729 19.0724 118.985 18.4415 119.252 17.8107C119.397 17.4716 119.543 17.1338 119.696 16.7967C119.717 16.7476 119.736 16.7021 119.752 16.6666C119.76 16.6528 119.765 16.6377 119.771 16.6242C119.774 16.6175 119.778 16.6107 119.78 16.604C119.884 16.3721 119.99 16.1415 120.097 15.9107C120.438 15.1838 120.796 14.4657 121.178 13.7586C121.685 12.8245 122.668 12.3124 123.7 12.414C123.717 12.4162 123.736 12.4167 123.754 12.4206C123.853 12.4306 123.952 12.4469 124.05 12.4712C124.519 12.5865 124.939 12.8244 125.272 13.1491C125.652 13.518 125.919 13.9963 126.017 14.5315C126.039 14.6522 126.052 14.7758 126.056 14.9005C126.07 15.2603 126.081 15.6206 126.088 15.9797C126.091 16.1222 126.095 16.2629 126.097 16.4053C126.101 16.6238 126.103 16.8425 126.105 17.0596C126.111 17.7774 126.111 18.4914 126.111 19.1928C126.11 20.4003 126.109 21.6366 126.146 22.8516C126.15 22.997 126.155 23.1423 126.16 23.2859C126.166 23.431 126.172 23.5746 126.178 23.7197C126.183 23.8333 126.188 23.9469 126.194 24.0587C126.195 24.0902 126.198 24.1231 126.199 24.1547C126.237 24.8792 126.293 25.6045 126.369 26.3285C126.402 26.646 126.44 26.9612 126.482 27.2758C126.65 28.5407 126.895 29.7917 127.248 31.0131C127.372 31.4448 127.511 31.8712 127.668 32.2904C127.702 32.3856 127.737 32.479 127.774 32.5722C127.778 32.5796 127.781 32.5887 127.784 32.5962L127.785 32.5945C127.79 32.5858 127.794 32.5805 127.798 32.5721C128.761 30.849 129.428 28.8993 130.004 27.0178C130.767 24.5246 131.445 21.9338 132.099 19.4274C132.306 18.6384 132.513 17.843 132.726 17.0469C132.821 16.6845 132.918 16.3219 133.016 15.959C133.15 15.4643 133.286 14.9709 133.424 14.4755C133.481 14.2708 133.538 14.0676 133.597 13.8626C133.664 13.6279 133.731 13.3932 133.798 13.1585C133.867 12.9267 133.935 12.6967 134.004 12.4649C134.073 12.2315 134.144 11.9995 134.215 11.7675C134.271 11.5819 134.328 11.3978 134.385 11.2137C134.527 10.759 134.673 10.3039 134.822 9.85139C134.908 9.59185 134.995 9.33209 135.084 9.07212C135.173 8.81214 135.263 8.55373 135.355 8.29487C135.438 8.06422 135.522 7.83356 135.606 7.60291C135.614 7.58271 135.621 7.56273 135.629 7.54253C135.706 7.33185 135.786 7.12074 135.865 6.90963C135.874 6.88788 135.882 6.86612 135.89 6.84592C135.892 6.83926 135.895 6.83416 135.897 6.82905C135.927 6.74869 135.957 6.66989 135.989 6.59087C136.003 6.55246 136.018 6.51539 136.033 6.47677C136.047 6.43836 136.064 6.39952 136.079 6.36245C136.08 6.35757 136.081 6.35424 136.084 6.34913C136.09 6.32759 136.098 6.30584 136.108 6.28542C136.126 6.24014 136.145 6.19464 136.164 6.15069C136.178 6.12339 136.19 6.09632 136.203 6.07058C136.22 6.03174 136.24 5.99402 136.26 5.95629C136.281 5.92013 136.3 5.88418 136.321 5.8478C136.33 5.83071 136.341 5.81496 136.351 5.79766C136.728 5.18161 137.31 4.71148 138.006 4.47591C138.214 4.40405 138.428 4.35666 138.648 4.33062C140.056 4.16529 141.208 5.09726 142.157 6.03865C142.771 6.65086 143.352 7.30742 143.79 8.05846C144.228 8.80641 144.52 9.65568 144.528 10.5239Z" fill="#1188EE"/>
<path opacity="0.5" d="M135.897 7.02155L135.896 7.02799C135.672 8.90783 132.561 23.6519 129.662 30.9978C129.373 31.7301 129.074 32.4653 128.724 33.1697C128.456 33.7053 128.161 34.2243 127.813 34.7124C127.741 34.7082 127.669 34.7009 127.597 34.6887C126.717 34.5437 125.926 33.8484 125.612 33.0101C125.284 32.1374 125.463 31.1619 125.677 30.2545C125.719 30.0741 125.764 29.8949 125.808 29.7157C126.011 28.8972 126.238 28.0831 126.482 27.2763C126.65 28.5412 126.895 29.7921 127.248 31.0136C127.372 31.4453 127.511 31.8717 127.668 32.2908C127.702 32.3861 127.737 32.4795 127.774 32.5727C127.778 32.5801 127.781 32.5892 127.784 32.5967C127.789 32.5881 127.794 32.581 127.798 32.5726C128.761 30.8495 129.428 28.8998 130.004 27.0183C130.767 24.5251 131.445 21.9343 132.099 19.4279C132.306 18.6389 132.513 17.8435 132.726 17.0474C132.821 16.685 132.918 16.3224 133.016 15.9595C133.15 15.4648 133.286 14.9714 133.424 14.476C133.481 14.2713 133.538 14.0681 133.597 13.8631C133.664 13.6284 133.731 13.3937 133.798 13.159C133.867 12.9272 133.935 12.6972 134.004 12.4654C134.073 12.232 134.144 12 134.214 11.768C134.271 11.5823 134.328 11.3983 134.384 11.2142C134.527 10.7595 134.673 10.3043 134.822 9.85188C134.908 9.59234 134.995 9.33258 135.084 9.07261C135.173 8.81263 135.263 8.55422 135.355 8.29536C135.438 8.06471 135.522 7.83405 135.605 7.6034C135.614 7.5832 135.62 7.56322 135.629 7.54302C135.706 7.33234 135.786 7.12123 135.865 6.91012C135.874 6.88837 135.882 6.86661 135.89 6.84641C135.892 6.83975 135.895 6.83465 135.897 6.82954C135.912 6.8227 135.912 6.88936 135.897 7.02155Z" fill="#1188EE"/>
<path opacity="0.5" d="M136.082 6.34944L136.079 6.36255L135.897 7.02115L135.896 7.0276L128.724 33.1693L128.178 35.1608C127.985 35.1339 127.791 34.9611 127.597 34.6883C126.873 33.6615 126.183 31.2131 125.808 29.7153C125.625 28.9826 125.516 28.4773 125.516 28.4773L126.369 26.3286C126.402 26.6461 126.44 26.9613 126.482 27.2759C126.65 28.5408 126.895 29.7917 127.248 31.0132C127.372 31.4449 127.511 31.8713 127.668 32.2905C127.702 32.3857 127.737 32.4791 127.774 32.5723C127.778 32.5797 127.781 32.5888 127.784 32.5963C127.789 32.5877 127.794 32.5806 127.798 32.5722C128.761 30.8491 129.428 28.8994 130.004 27.0179C130.767 24.5247 131.445 21.9339 132.099 19.4275C132.306 18.6385 132.513 17.8431 132.726 17.047C132.821 16.6846 132.918 16.322 133.016 15.9591C133.15 15.4644 133.286 14.971 133.424 14.4756C133.481 14.2709 133.538 14.0677 133.597 13.8627C133.664 13.628 133.731 13.3933 133.798 13.1586C133.867 12.9268 133.935 12.6968 134.004 12.465C134.073 12.2316 134.144 11.9996 134.214 11.7676C134.271 11.5819 134.328 11.3979 134.384 11.2138C134.527 10.7591 134.673 10.304 134.822 9.85148C134.908 9.59194 134.995 9.33219 135.084 9.07221C135.173 8.81224 135.263 8.55382 135.355 8.29497C135.438 8.06431 135.522 7.83366 135.605 7.603C135.614 7.5828 135.62 7.56282 135.629 7.54262C135.706 7.33195 135.786 7.12084 135.865 6.90973C135.874 6.88797 135.882 6.86622 135.89 6.84602C135.892 6.83936 135.895 6.83425 135.897 6.82915C135.927 6.74879 135.957 6.66998 135.989 6.59096C136.003 6.55256 136.018 6.51549 136.033 6.47686C136.05 6.43491 136.066 6.3914 136.082 6.34944Z" fill="#1188EE"/>
<path opacity="0.5" d="M123.699 12.4139C123.56 12.4635 123.423 12.5271 123.284 12.6165C122.479 13.1274 121.985 13.9962 121.536 14.8365C119.77 18.1413 118.197 21.5507 116.827 25.0395C115.823 27.6029 114.913 30.2373 113.383 32.5252C112.991 33.1132 112.459 33.7286 111.752 33.745C111.308 33.7564 110.898 33.5203 110.522 33.2842C109.89 32.8855 109.251 32.4338 108.907 31.7711C108.76 31.4871 108.676 31.1831 108.64 30.8692C109.04 30.7339 109.479 30.7453 109.843 30.9546C110.135 31.1201 110.352 31.3896 110.56 31.6524C111.021 32.2289 111.468 32.8946 112.041 33.3936C112.047 33.3881 112.051 33.3827 112.056 33.3756C112.079 33.3439 112.105 33.3133 112.131 33.2747C114.512 30.0521 115.957 26.2719 117.486 22.2689C117.78 21.4995 118.077 20.7216 118.384 19.9425C118.397 19.9121 118.41 19.8786 118.424 19.8433C118.442 19.8011 118.459 19.7543 118.479 19.7054C118.729 19.0724 118.985 18.4415 119.252 17.8107C119.397 17.4716 119.543 17.1337 119.696 16.7966C119.717 16.7476 119.736 16.7021 119.752 16.6665C119.76 16.6528 119.765 16.6377 119.771 16.6242C119.774 16.6175 119.777 16.6106 119.78 16.604C119.884 16.372 119.989 16.1414 120.097 15.9106C120.438 15.1838 120.796 14.4657 121.178 13.7586C121.685 12.8244 122.668 12.3123 123.699 12.4139Z" fill="#1188EE"/>
<path opacity="0.5" d="M123.754 12.4207C123.06 12.9939 122.615 13.8146 122.21 14.6028C119.693 19.4897 117.738 24.6425 115.505 29.6658C115.082 30.6184 114.646 31.5727 114.065 32.4377C113.666 33.0315 113.178 33.5997 112.524 33.8927C111.435 34.3814 110.079 33.962 109.276 33.0794C108.757 32.5079 108.444 31.7821 108.305 31.0177C108.307 31.0175 108.308 31.0157 108.31 31.0155C108.414 30.9549 108.526 30.9059 108.64 30.8694C109.04 30.734 109.479 30.7455 109.843 30.9548C110.135 31.1203 110.352 31.3898 110.56 31.6526C111.021 32.2291 111.468 32.8948 112.041 33.3938C112.047 33.3882 112.051 33.3829 112.056 33.3758C112.079 33.3441 112.105 33.3135 112.131 33.2749C114.512 30.0523 115.957 26.2721 117.486 22.269C117.78 21.4996 118.077 20.7218 118.384 19.9427C118.397 19.9123 118.41 19.8787 118.424 19.8434C118.442 19.8013 118.459 19.7544 118.479 19.7056C118.729 19.0725 118.985 18.4417 119.252 17.8109C119.397 17.4717 119.543 17.1339 119.696 16.7968C119.717 16.7477 119.736 16.7022 119.752 16.6667C119.76 16.653 119.765 16.6379 119.771 16.6243C119.774 16.6177 119.777 16.6108 119.78 16.6041C119.884 16.3722 119.989 16.1416 120.097 15.9108C120.438 15.184 120.796 14.4659 121.178 13.7587C121.685 12.8246 122.668 12.3125 123.699 12.4141C123.717 12.4164 123.736 12.4169 123.754 12.4207Z" fill="#1188EE"/>
<path d="M130.785 35.4592C130.721 35.4919 130.645 35.6597 130.59 35.7546C130.508 35.874 130.423 35.9922 130.335 36.1061C130.218 36.2574 130.094 36.4048 129.963 36.5437C129.848 36.6645 129.729 36.7795 129.601 36.8863C128.499 37.8165 126.937 38.0096 125.764 37.0949C125.406 36.8165 125.111 36.4532 124.888 36.0179C124.838 35.9218 124.79 35.827 124.743 35.7304C124.326 34.8828 123.976 34.0177 123.685 33.1509C123.68 33.1358 123.676 33.122 123.671 33.1084C123.464 32.49 123.281 31.8619 123.123 31.2288C123.042 30.9117 122.969 30.5935 122.9 30.2746C122.832 29.9557 122.768 29.6362 122.71 29.3143C122.687 29.1826 122.664 29.0526 122.641 28.9209C122.623 28.8171 122.606 28.7148 122.59 28.6108C122.356 27.179 122.196 25.7209 122.155 24.2781C122.154 24.2639 122.152 24.2483 122.152 24.2341C122.107 23.3789 122.086 22.5186 122.073 21.6667C122.074 21.6492 122.073 21.6334 122.073 21.6192C122.073 21.605 122.076 21.549 122.084 21.4605C122.15 20.3423 122.527 14.909 123.836 13.6247C124.367 13.1029 124.859 13.0103 125.272 13.1492C125.281 13.151 125.29 13.1546 125.3 13.158C125.351 13.2095 125.402 13.2627 125.449 13.3195C125.489 13.3663 125.526 13.4135 125.563 13.4638C125.583 13.4912 125.601 13.5188 125.621 13.5462C125.623 13.5491 125.623 13.5522 125.627 13.5549C125.661 13.6088 125.694 13.6629 125.726 13.7188C125.743 13.7481 125.758 13.7777 125.773 13.8073C125.777 13.8147 125.78 13.8207 125.784 13.828L125.784 13.8296C125.795 13.8503 125.806 13.8694 125.815 13.8888C125.819 13.8992 125.824 13.9081 125.828 13.9171C125.915 14.1095 125.979 14.3164 126.017 14.5316C126.039 14.6523 126.051 14.7759 126.056 14.9006C126.07 15.2604 126.081 15.6207 126.088 15.9798C126.091 16.1223 126.095 16.263 126.097 16.4054C126.101 16.6239 126.103 16.8426 126.105 17.0597C126.111 17.7775 126.111 18.4915 126.111 19.1929C126.11 20.4004 126.109 21.6367 126.146 22.8517C126.15 22.997 126.155 23.1424 126.16 23.286C126.165 23.4313 126.171 23.5765 126.178 23.7198C126.183 23.8334 126.188 23.947 126.194 24.0587C126.195 24.0903 126.198 24.1232 126.199 24.1548C126.214 24.4161 126.231 24.6755 126.251 24.9298C126.256 25.0258 126.265 25.1199 126.272 25.2141C126.277 25.3086 126.285 25.401 126.295 25.4933C126.306 25.6298 126.318 25.7645 126.331 25.8992C126.343 26.0323 126.357 26.1653 126.371 26.2966C126.388 26.464 126.408 26.6294 126.427 26.7932C126.445 26.9511 126.465 27.1069 126.487 27.261C126.729 29.0755 127.134 30.88 127.785 32.5946C127.926 32.9668 128.079 33.3356 128.244 33.6997C128.37 33.9756 128.502 34.2555 128.67 34.5096C128.69 34.5385 128.709 34.5692 128.731 34.5995C128.786 34.679 128.845 34.7596 128.908 34.8365C129.064 35.0289 129.241 35.2057 129.447 35.3418C129.765 35.5512 130.169 35.6581 130.537 35.5574C130.624 35.5341 130.707 35.5003 130.785 35.4592Z" fill="#1188EE"/>
<path opacity="0.5" d="M130.785 35.459C130.722 35.4918 130.645 35.6595 130.59 35.7545C130.508 35.8738 130.423 35.992 130.335 36.106C129.613 36.0308 128.897 35.7186 128.338 35.251C127.288 34.3713 126.699 33.0607 126.284 31.7557C125.349 28.8021 125.135 25.6634 125.211 22.5651C125.28 19.6486 125.602 16.7428 125.784 13.8295C125.795 13.8502 125.806 13.8693 125.815 13.8887C125.819 13.8991 125.824 13.908 125.828 13.9169C125.915 14.1094 125.979 14.3162 126.017 14.5315C126.039 14.6522 126.052 14.7758 126.056 14.9005C126.07 15.2603 126.081 15.6206 126.088 15.9797C126.091 16.1222 126.095 16.2628 126.097 16.4053C126.101 16.6237 126.103 16.8424 126.105 17.0595C126.111 17.7774 126.111 18.4914 126.111 19.1927C126.11 20.4003 126.109 21.6365 126.146 22.8516C126.15 22.9969 126.155 23.1423 126.16 23.2858C126.165 23.4312 126.171 23.5763 126.178 23.7197C126.183 23.8332 126.188 23.9468 126.194 24.0586C126.195 24.0902 126.198 24.1231 126.2 24.1546C126.214 24.416 126.231 24.6754 126.251 24.9297C126.256 25.0257 126.265 25.1197 126.272 25.214C126.277 25.3084 126.285 25.4009 126.295 25.4932C126.306 25.6296 126.318 25.7643 126.331 25.899C126.343 26.0322 126.357 26.1651 126.371 26.2965C126.388 26.4639 126.408 26.6293 126.428 26.7931C126.445 26.9509 126.465 27.1068 126.487 27.2608C126.73 29.0754 127.134 30.8799 127.785 32.5944C127.926 32.9666 128.079 33.3355 128.245 33.6995C128.37 33.9755 128.502 34.2554 128.671 34.5094C128.69 34.5384 128.709 34.5691 128.731 34.5994C128.786 34.6789 128.845 34.7595 128.908 34.8363C129.064 35.0288 129.241 35.2055 129.447 35.3417C129.765 35.551 130.169 35.658 130.537 35.5572C130.624 35.5339 130.707 35.5002 130.785 35.459Z" fill="#1188EE"/>
<path opacity="0.5" d="M130.785 35.4592C130.722 35.4919 130.645 35.6597 130.59 35.7547C130.508 35.874 130.423 35.9922 130.335 36.1062C130.218 36.2574 130.094 36.4048 129.963 36.5438C129.721 36.5506 129.478 36.5259 129.243 36.4684C128.247 36.2222 127.43 35.4765 126.897 34.6008C126.363 33.725 126.08 32.7222 125.842 31.7241C124.443 25.8698 124.425 19.6923 125.784 13.8281L125.784 13.8296C125.795 13.8503 125.806 13.8695 125.815 13.8888C125.819 13.8993 125.824 13.9082 125.828 13.9171C125.915 14.1095 125.979 14.3164 126.017 14.5316C126.039 14.6524 126.052 14.776 126.056 14.9006C126.07 15.2605 126.081 15.6207 126.088 15.9799C126.091 16.1223 126.095 16.263 126.097 16.4054C126.101 16.6239 126.103 16.8426 126.105 17.0597C126.111 17.7775 126.111 18.4915 126.111 19.1929C126.11 20.4005 126.109 21.6367 126.146 22.8517C126.15 22.9971 126.155 23.1424 126.16 23.286C126.165 23.4313 126.171 23.5765 126.178 23.7198C126.183 23.8334 126.188 23.947 126.194 24.0588C126.195 24.0903 126.198 24.1232 126.2 24.1548C126.214 24.4162 126.231 24.6756 126.251 24.9298C126.256 25.0259 126.265 25.1199 126.272 25.2141C126.277 25.3086 126.285 25.4011 126.295 25.4933C126.306 25.6298 126.318 25.7645 126.331 25.8992C126.343 26.0323 126.357 26.1653 126.371 26.2967C126.388 26.464 126.408 26.6294 126.428 26.7933C126.445 26.9511 126.465 27.1069 126.487 27.261C126.729 29.0755 127.134 30.88 127.785 32.5946C127.926 32.9668 128.079 33.3357 128.245 33.6997C128.37 33.9756 128.502 34.2556 128.67 34.5096C128.69 34.5385 128.709 34.5693 128.731 34.5996C128.786 34.679 128.845 34.7597 128.908 34.8365C129.064 35.029 129.241 35.2057 129.447 35.3418C129.765 35.5512 130.169 35.6581 130.537 35.5574C130.624 35.5341 130.707 35.5003 130.785 35.4592Z" fill="#1188EE"/>
<path d="M117.435 32.4678C117.091 33.0912 116.726 33.7045 116.339 34.3023C116.122 34.6389 115.9 34.9819 115.664 35.3153C115.584 35.4277 115.503 35.5392 115.419 35.6499C115.012 36.189 114.555 36.6882 114.003 37.0729C113.468 37.4469 112.841 37.7047 112.19 37.7446C111.147 37.8089 110.149 37.32 109.288 36.7291C108.855 36.4311 108.439 36.1028 108.099 35.7033C107.4 34.8837 107.033 33.5474 107.311 32.4361C107.405 32.0563 107.575 31.7029 107.833 31.4062C107.846 31.3893 107.86 31.3734 107.874 31.3585C108.363 30.8255 109.216 30.5945 109.843 30.9549C110.135 31.1214 110.352 31.3902 110.56 31.6531C111.021 32.2302 111.469 32.8951 112.042 33.3947C112.047 33.3882 112.051 33.383 112.056 33.3765C112.095 33.4386 112.138 33.4988 112.186 33.5538C112.357 33.7465 112.587 33.8773 112.824 33.9756C113.314 34.1795 113.854 34.2612 114.381 34.2106C115.153 34.1363 115.878 33.7856 116.496 33.3185C116.834 33.063 117.143 32.7741 117.435 32.4678Z" fill="#1188EE"/>
<path opacity="0.5" d="M115.664 35.3152C115.194 35.9805 114.668 36.6096 114.003 37.0728C113.468 37.4469 112.841 37.7046 112.19 37.7445C111.147 37.8088 110.149 37.3199 109.288 36.729C108.855 36.431 108.439 36.1028 108.099 35.7032C107.161 34.6039 106.821 32.5734 107.833 31.4061C108.104 32.0341 108.54 32.5995 108.981 33.1315C109.485 33.7374 110.012 34.3307 110.63 34.8183C111.249 35.3068 111.968 35.687 112.745 35.8158C113.383 35.9221 114.041 35.8569 114.664 35.6868C115.007 35.5934 115.343 35.4685 115.664 35.3152Z" fill="#1188EE"/>
<path opacity="0.5" d="M115.419 35.6495C115.012 36.1886 114.555 36.6879 114.003 37.0725C113.468 37.4466 112.841 37.7043 112.19 37.7442C111.147 37.8085 110.149 37.3196 109.288 36.7288C108.855 36.4307 108.439 36.1025 108.099 35.7029C107.4 34.8833 107.033 33.5471 107.311 32.4358C107.74 33.5574 108.521 34.56 109.376 35.4242C109.674 35.727 109.989 36.0217 110.362 36.2245C110.707 36.4103 111.091 36.5124 111.479 36.5711C112.593 36.7401 113.756 36.5539 114.761 36.0455C114.989 35.9298 115.21 35.7977 115.419 35.6495Z" fill="#1188EE"/>
<path d="M124.743 35.7305C124.675 35.5918 124.609 35.4527 124.544 35.3132C124.61 35.4524 124.674 35.5916 124.743 35.7305Z" fill="#1188EE"/>
<path d="M144.528 10.5242C144.53 10.6427 144.524 10.7646 144.512 10.8861C144.467 11.3593 144.328 11.8421 144.103 12.2764C143.941 12.5867 143.734 12.8728 143.487 13.1122C143.295 13.2997 143.075 13.4587 142.833 13.5798C142.407 13.792 141.898 13.8609 141.446 13.7123C140.618 13.4405 140.432 12.6852 140.312 11.9279C140.174 11.0566 140.098 10.1404 139.659 9.35665C139.634 9.31238 139.605 9.26872 139.575 9.22757C139.526 9.1622 139.475 9.09948 139.424 9.03909C139.424 9.03909 139.424 9.03909 139.422 9.03815C139.415 9.02868 139.247 8.85553 139.16 8.78391C138.715 8.42008 138.119 8.26715 137.546 8.30548C136.973 8.34491 136.422 8.56641 135.94 8.88065C135.525 9.15056 135.159 9.48819 134.822 9.85201C134.994 9.33198 135.172 8.81241 135.356 8.29544C135.529 7.81012 135.706 7.3279 135.891 6.84551C135.892 6.84067 135.895 6.83443 135.897 6.82961C135.928 6.75088 135.958 6.67074 135.989 6.592C136.02 6.51093 136.052 6.43078 136.083 6.34956C136.091 6.32867 136.099 6.30653 136.108 6.28547C136.126 6.23979 136.146 6.19518 136.165 6.15059C136.177 6.12329 136.19 6.0971 136.204 6.07072C136.22 6.03221 136.241 5.99444 136.26 5.95685C136.28 5.9202 136.3 5.8837 136.322 5.84812C136.331 5.83156 136.341 5.81504 136.351 5.79864C136.515 5.53119 136.718 5.29099 136.951 5.08603C137.256 4.8176 137.613 4.60924 138.006 4.47609C138.056 4.45863 138.108 4.44333 138.159 4.42914C138.318 4.38248 138.481 4.3503 138.647 4.33056C140.056 4.1659 141.209 5.09783 142.157 6.03981C142.772 6.65105 143.352 7.30804 143.79 8.05817C144.227 8.80715 144.519 9.65573 144.528 10.5242Z" fill="#1188EE"/>
<path opacity="0.5" d="M144.528 10.5242C144.529 10.6426 144.524 10.7646 144.512 10.8861C144.467 11.3593 144.328 11.8421 144.103 12.2764C144.031 11.8824 143.95 11.4899 143.848 11.1024C143.41 9.44872 142.584 7.89018 141.41 6.64461C140.503 5.683 139.387 4.91241 138.159 4.42885C138.318 4.38219 138.481 4.35001 138.647 4.33026C140.056 4.16561 141.208 5.09753 142.156 6.03952C142.772 6.65075 143.351 7.30775 143.789 8.05788C144.227 8.80712 144.519 9.65571 144.528 10.5242Z" fill="#1188EE"/>
<path opacity="0.5" d="M144.528 10.5242C144.53 10.6427 144.525 10.7646 144.513 10.8861C144.467 11.3593 144.329 11.8422 144.103 12.2764C143.941 12.5867 143.735 12.8728 143.488 13.1122C142.979 10.9318 141.916 8.88133 140.425 7.2098C139.914 6.63866 139.35 6.10524 138.694 5.70932C138.162 5.38784 137.565 5.15832 136.951 5.08594C137.255 4.81752 137.613 4.60915 138.006 4.476C138.056 4.45855 138.108 4.44325 138.159 4.42906C138.318 4.3824 138.481 4.35022 138.647 4.33047C140.056 4.16582 141.209 5.09774 142.157 6.03973C142.772 6.65096 143.352 7.30796 143.79 8.05809C144.227 8.80718 144.52 9.65576 144.528 10.5242Z" fill="#1188EE"/>
</svg>
