<svg width="171" height="48" viewBox="0 0 171 48" fill="none" xmlns="http://www.w3.org/2000/svg">
<path d="M38.13 38.84C35.218 38.84 32.978 38.336 31.41 37.328C29.842 36.292 29.058 34.78 29.058 32.792C29.058 31.784 29.394 30.958 30.066 30.314C30.766 29.642 31.662 29.306 32.754 29.306C33.482 29.334 33.986 29.516 34.266 29.852C34.574 30.188 34.728 30.44 34.728 30.608C34.728 30.664 34.602 30.762 34.35 30.902C34.098 31.014 33.846 31.238 33.594 31.574C33.342 31.882 33.216 32.372 33.216 33.044C33.216 34.304 33.608 35.312 34.392 36.068C35.176 36.796 36.422 37.16 38.13 37.16C39.334 37.16 40.356 36.936 41.196 36.488C42.064 36.012 42.722 35.41 43.17 34.682C43.618 33.926 43.842 33.156 43.842 32.372C43.842 31.196 43.506 30.23 42.834 29.474C42.162 28.718 41.28 28.074 40.188 27.542C39.124 26.982 37.99 26.45 36.786 25.946C35.582 25.442 34.434 24.868 33.342 24.224C32.278 23.58 31.396 22.782 30.696 21.83C29.996 20.85 29.632 19.632 29.604 18.176C29.576 16.412 29.954 14.984 30.738 13.892C31.522 12.772 32.614 11.96 34.014 11.456C35.414 10.924 36.968 10.658 38.676 10.658C39.936 10.658 41.168 10.84 42.372 11.204C43.604 11.568 44.612 12.142 45.396 12.926C46.208 13.682 46.614 14.69 46.614 15.95C46.614 16.958 46.264 17.798 45.564 18.47C44.892 19.114 44.01 19.436 42.918 19.436C42.19 19.38 41.672 19.198 41.364 18.89C41.084 18.554 40.944 18.302 40.944 18.134C40.944 18.05 41.112 17.952 41.448 17.84C41.784 17.7 42.12 17.476 42.456 17.168C42.792 16.832 42.96 16.342 42.96 15.698C42.96 14.634 42.554 13.822 41.742 13.262C40.93 12.674 39.922 12.38 38.718 12.38C36.898 12.38 35.568 12.814 34.728 13.682C33.916 14.522 33.51 15.474 33.51 16.538C33.51 17.574 33.79 18.414 34.35 19.058C34.91 19.702 35.75 20.332 36.87 20.948C38.13 21.62 39.404 22.25 40.692 22.838C41.98 23.398 43.17 24.028 44.262 24.728C45.382 25.428 46.278 26.31 46.95 27.374C47.622 28.41 47.958 29.754 47.958 31.406C47.958 32.834 47.51 34.108 46.614 35.228C45.746 36.348 44.57 37.23 43.086 37.874C41.602 38.518 39.95 38.84 38.13 38.84ZM59.3925 38.504C57.4885 38.504 55.9765 37.93 54.8565 36.782C53.7365 35.634 53.1765 34.122 53.1765 32.246V24.476C53.1765 23.972 53.1485 23.51 53.0925 23.09C53.0645 22.642 52.9105 22.292 52.6305 22.04C52.3505 21.76 51.8185 21.62 51.0345 21.62C50.7825 21.62 50.5445 21.592 50.3205 21.536C50.1245 21.452 50.0265 21.2 50.0265 20.78C50.0265 20.36 50.2505 20.108 50.6985 20.024C51.9865 19.828 52.9665 19.632 53.6385 19.436C54.3385 19.24 54.8705 19.072 55.2345 18.932C55.5985 18.792 55.9205 18.708 56.2005 18.68C56.4245 18.652 56.6065 18.694 56.7465 18.806C56.9145 18.918 56.9985 19.142 56.9985 19.478V32.204C56.9985 33.128 57.1945 33.884 57.5865 34.472C58.0065 35.06 58.5245 35.494 59.1405 35.774C59.7565 36.054 60.3865 36.194 61.0305 36.194C62.0105 36.194 62.8645 36.026 63.5925 35.69C64.3205 35.326 64.9085 34.92 65.3565 34.472C65.8045 33.996 66.0985 33.604 66.2385 33.296V24.476C66.2385 23.972 66.2105 23.51 66.1545 23.09C66.1265 22.642 65.9725 22.292 65.6925 22.04C65.4125 21.76 64.8805 21.62 64.0965 21.62C63.8445 21.62 63.6065 21.592 63.3825 21.536C63.1865 21.452 63.0885 21.2 63.0885 20.78C63.0885 20.36 63.3125 20.108 63.7605 20.024C65.0485 19.828 66.0285 19.632 66.7005 19.436C67.4005 19.24 67.9325 19.072 68.2965 18.932C68.6605 18.792 68.9825 18.708 69.2625 18.68C69.4865 18.652 69.6685 18.694 69.8085 18.806C69.9765 18.918 70.0605 19.142 70.0605 19.478V34.01C70.0605 35.662 71.1665 36.488 73.3785 36.488C73.6865 36.488 73.8825 36.572 73.9665 36.74C74.0505 36.908 74.0925 37.09 74.0925 37.286C74.0925 37.678 73.8545 37.916 73.3785 38L66.6165 38.462C66.4205 38.462 66.3085 38.378 66.2805 38.21C66.2525 38.042 66.2385 37.846 66.2385 37.622V35.27H66.1545C65.6225 35.774 65.0485 36.278 64.4325 36.782C63.8445 37.286 63.1445 37.692 62.3325 38C61.5485 38.336 60.5685 38.504 59.3925 38.504ZM76.39 38.126C76.194 38.126 76.026 38.042 75.886 37.874C75.774 37.678 75.718 37.482 75.718 37.286C75.774 36.866 75.886 36.642 76.054 36.614C76.222 36.558 76.446 36.53 76.726 36.53C77.51 36.53 78.042 36.404 78.322 36.152C78.602 35.872 78.756 35.508 78.784 35.06C78.84 34.612 78.868 34.15 78.868 33.674V24.056C78.868 23.552 78.84 23.09 78.784 22.67C78.756 22.222 78.602 21.872 78.322 21.62C78.042 21.34 77.51 21.2 76.726 21.2C76.474 21.2 76.236 21.172 76.012 21.116C75.816 21.032 75.718 20.78 75.718 20.36C75.718 19.94 75.942 19.688 76.39 19.604C77.678 19.408 78.658 19.212 79.33 19.016C80.03 18.82 80.548 18.652 80.884 18.512C81.248 18.372 81.57 18.288 81.85 18.26C82.074 18.232 82.256 18.274 82.396 18.386C82.564 18.498 82.648 18.722 82.648 19.058V21.662H82.774C83.726 20.738 84.706 19.982 85.714 19.394C86.722 18.778 87.646 18.47 88.486 18.47C89.466 18.47 90.208 18.834 90.712 19.562C91.244 20.29 91.51 21.06 91.51 21.872C91.51 22.572 91.286 23.258 90.838 23.93C90.39 24.574 89.718 24.896 88.822 24.896C88.374 24.896 88.01 24.812 87.73 24.644C87.478 24.448 87.338 24.308 87.31 24.224C87.31 24.168 87.436 24 87.688 23.72C87.968 23.44 88.108 23.09 88.108 22.67C88.108 22.166 87.968 21.76 87.688 21.452C87.436 21.144 87.086 20.99 86.638 20.99C86.162 20.99 85.546 21.228 84.79 21.704C84.062 22.18 83.362 22.754 82.69 23.426V33.674C82.69 34.15 82.704 34.612 82.732 35.06C82.788 35.508 82.956 35.872 83.236 36.152C83.544 36.404 84.09 36.53 84.874 36.53C85.126 36.53 85.336 36.558 85.504 36.614C85.7 36.642 85.812 36.866 85.84 37.286C85.84 37.482 85.784 37.678 85.672 37.874C85.56 38.042 85.392 38.126 85.168 38.126C84.356 38.07 83.6 38.028 82.9 38C82.228 38 81.514 38 80.758 38C80.002 38 79.288 38 78.616 38C77.944 38.028 77.202 38.07 76.39 38.126ZM94.6098 38.126C94.3858 38.126 94.2178 38.042 94.1058 37.874C93.9938 37.678 93.9378 37.482 93.9378 37.286C93.9658 36.866 94.0638 36.642 94.2318 36.614C94.3998 36.558 94.6238 36.53 94.9038 36.53C95.6878 36.53 96.2198 36.404 96.4998 36.152C96.8078 35.872 96.9758 35.508 97.0038 35.06C97.0318 34.612 97.0458 34.15 97.0458 33.674V20.612H94.2318C94.0078 20.612 93.8258 20.528 93.6858 20.36C93.5738 20.164 93.5178 19.968 93.5178 19.772C93.5458 19.324 93.6438 19.086 93.8118 19.058C94.0078 19.002 94.2458 18.974 94.5258 18.974H97.0458V17.21C97.0458 15.334 97.3398 13.668 97.9278 12.212C98.5158 10.756 99.3838 9.594 100.532 8.726C101.708 7.858 103.136 7.41 104.816 7.382C105.684 7.382 106.524 7.55 107.336 7.886C108.148 8.222 108.82 8.698 109.352 9.314C109.884 9.902 110.15 10.63 110.15 11.498C110.15 12.282 109.912 13.01 109.436 13.682C108.96 14.326 108.274 14.648 107.378 14.648C106.79 14.648 106.328 14.494 105.992 14.186C105.684 13.878 105.53 13.668 105.53 13.556C105.53 13.472 105.642 13.346 105.866 13.178C106.118 12.982 106.356 12.702 106.58 12.338C106.832 11.974 106.958 11.526 106.958 10.994C106.958 10.378 106.72 9.86 106.244 9.44C105.796 8.992 105.222 8.768 104.522 8.768C103.598 8.768 102.884 9.048 102.38 9.608C101.876 10.168 101.526 10.868 101.33 11.708C101.134 12.548 101.008 13.402 100.952 14.27C100.924 15.138 100.91 15.866 100.91 16.454V18.974H105.026C105.306 18.974 105.544 19.002 105.74 19.058C105.936 19.086 106.048 19.324 106.076 19.772C106.076 19.968 106.006 20.164 105.866 20.36C105.754 20.528 105.586 20.612 105.362 20.612H100.91V33.674C100.91 34.486 100.966 35.102 101.078 35.522C101.218 35.942 101.498 36.222 101.918 36.362C102.366 36.474 103.024 36.53 103.892 36.53C104.172 36.53 104.396 36.558 104.564 36.614C104.732 36.642 104.83 36.866 104.858 37.286C104.858 37.482 104.802 37.678 104.69 37.874C104.606 38.042 104.452 38.126 104.228 38.126C103.416 38.07 102.52 38.028 101.54 38C100.56 38 99.7058 38 98.9778 38C98.2218 38 97.5078 38 96.8358 38C96.1638 38.028 95.4218 38.07 94.6098 38.126ZM108.628 38.126C108.432 38.126 108.264 38.042 108.124 37.874C108.012 37.678 107.956 37.482 107.956 37.286C108.012 36.866 108.124 36.642 108.292 36.614C108.46 36.558 108.684 36.53 108.964 36.53C109.748 36.53 110.28 36.404 110.56 36.152C110.84 35.872 110.994 35.508 111.022 35.06C111.078 34.612 111.106 34.15 111.106 33.674V24.056C111.106 23.552 111.078 23.09 111.022 22.67C110.994 22.222 110.84 21.872 110.56 21.62C110.28 21.34 109.748 21.2 108.964 21.2C108.712 21.2 108.474 21.172 108.25 21.116C108.054 21.032 107.956 20.78 107.956 20.36C107.956 19.94 108.18 19.688 108.628 19.604C109.916 19.408 110.896 19.212 111.568 19.016C112.268 18.82 112.786 18.652 113.122 18.512C113.486 18.372 113.808 18.288 114.088 18.26C114.312 18.232 114.494 18.274 114.634 18.386C114.802 18.498 114.886 18.722 114.886 19.058V21.704H115.012C115.572 21.172 116.146 20.668 116.734 20.192C117.322 19.688 118.008 19.282 118.792 18.974C119.604 18.638 120.598 18.47 121.774 18.47C123.678 18.47 125.19 19.044 126.31 20.192C127.43 21.34 127.99 22.852 127.99 24.728V33.674C127.99 34.15 128.004 34.612 128.032 35.06C128.088 35.508 128.256 35.872 128.536 36.152C128.844 36.404 129.39 36.53 130.174 36.53C130.426 36.53 130.636 36.558 130.804 36.614C131 36.642 131.112 36.866 131.14 37.286C131.14 37.482 131.084 37.678 130.972 37.874C130.86 38.042 130.692 38.126 130.468 38.126C129.656 38.07 128.9 38.028 128.2 38C127.528 38 126.814 38 126.058 38C125.302 38 124.588 38 123.916 38C123.244 38.028 122.502 38.07 121.69 38.126C121.494 38.126 121.326 38.042 121.186 37.874C121.074 37.678 121.018 37.482 121.018 37.286C121.046 36.866 121.144 36.642 121.312 36.614C121.508 36.558 121.732 36.53 121.984 36.53C122.768 36.53 123.3 36.404 123.58 36.152C123.888 35.872 124.056 35.508 124.084 35.06C124.14 34.612 124.168 34.15 124.168 33.674V24.77C124.168 23.846 123.958 23.09 123.538 22.502C123.146 21.914 122.642 21.48 122.026 21.2C121.41 20.92 120.78 20.78 120.136 20.78C119.184 20.78 118.344 20.962 117.616 21.326C116.888 21.662 116.3 22.054 115.852 22.502C115.404 22.95 115.096 23.342 114.928 23.678V33.674C114.928 34.15 114.942 34.612 114.97 35.06C115.026 35.508 115.194 35.872 115.474 36.152C115.782 36.404 116.328 36.53 117.112 36.53C117.364 36.53 117.574 36.558 117.742 36.614C117.938 36.642 118.05 36.866 118.078 37.286C118.078 37.482 118.022 37.678 117.91 37.874C117.798 38.042 117.63 38.126 117.406 38.126C116.594 38.07 115.838 38.028 115.138 38C114.466 38 113.752 38 112.996 38C112.24 38 111.526 38 110.854 38C110.182 38.028 109.44 38.07 108.628 38.126ZM138.769 38.504C137.061 38.504 135.689 38.014 134.653 37.034C133.645 36.054 133.141 34.878 133.141 33.506C133.141 32.078 133.505 30.958 134.233 30.146C134.989 29.334 135.969 28.732 137.173 28.34C138.405 27.948 139.735 27.682 141.163 27.542C142.619 27.402 144.033 27.29 145.405 27.206V23.888C145.405 22.572 145.069 21.55 144.397 20.822C143.753 20.066 142.647 19.688 141.079 19.688C140.295 19.688 139.553 19.94 138.853 20.444C138.181 20.948 137.845 21.676 137.845 22.628C137.845 23.076 137.957 23.454 138.181 23.762C138.405 24.07 138.629 24.308 138.853 24.476C139.077 24.644 139.189 24.756 139.189 24.812C139.189 24.924 139.021 25.134 138.685 25.442C138.377 25.722 137.943 25.862 137.383 25.862C136.515 25.862 135.843 25.54 135.367 24.896C134.891 24.252 134.653 23.538 134.653 22.754C134.653 21.69 134.975 20.85 135.619 20.234C136.291 19.618 137.145 19.17 138.181 18.89C139.217 18.61 140.267 18.47 141.331 18.47C142.591 18.47 143.809 18.624 144.985 18.932C146.189 19.24 147.169 19.828 147.925 20.696C148.709 21.564 149.101 22.866 149.101 24.602V34.388C149.129 34.668 149.199 35.004 149.311 35.396C149.423 35.788 149.633 36.138 149.941 36.446C150.277 36.726 150.725 36.866 151.285 36.866C151.481 36.866 151.635 36.908 151.747 36.992C151.859 37.048 151.915 37.23 151.915 37.538C151.915 37.79 151.775 37.986 151.495 38.126C151.215 38.266 150.893 38.364 150.529 38.42C150.165 38.476 149.857 38.504 149.605 38.504C148.569 38.504 147.645 38.21 146.833 37.622C146.021 37.006 145.545 36.166 145.405 35.102C144.789 36.222 143.865 37.076 142.633 37.664C141.429 38.224 140.141 38.504 138.769 38.504ZM140.113 36.236C141.065 36.236 141.933 35.998 142.717 35.522C143.529 35.046 144.173 34.402 144.649 33.59C145.153 32.75 145.405 31.826 145.405 30.818V28.424C142.521 28.62 140.463 29.082 139.231 29.81C137.999 30.538 137.383 31.728 137.383 33.38C137.383 35.284 138.293 36.236 140.113 36.236ZM161.539 38.714C160.699 38.714 159.901 38.504 159.145 38.084C158.389 37.664 157.759 37.02 157.255 36.152C156.779 35.284 156.541 34.192 156.541 32.876V20.528L154.105 20.612C153.909 20.612 153.755 20.542 153.643 20.402C153.559 20.234 153.517 20.052 153.517 19.856C153.517 19.296 153.713 18.974 154.105 18.89C155.141 18.694 155.925 18.372 156.457 17.924C156.989 17.448 157.395 16.888 157.675 16.244C157.983 15.6 158.263 14.9 158.515 14.144C158.599 13.92 158.725 13.78 158.893 13.724C159.061 13.64 159.243 13.598 159.439 13.598C159.607 13.598 159.789 13.64 159.985 13.724C160.209 13.808 160.321 13.962 160.321 14.186L160.027 18.974L164.941 18.68C165.193 18.652 165.361 18.722 165.445 18.89C165.529 19.058 165.571 19.254 165.571 19.478C165.571 19.758 165.515 20.038 165.403 20.318C165.319 20.598 165.207 20.738 165.067 20.738L160.363 20.612V33.38C160.363 34.192 160.531 34.934 160.867 35.606C161.231 36.278 161.875 36.614 162.799 36.614C163.107 36.614 163.457 36.586 163.849 36.53C164.241 36.474 164.661 36.348 165.109 36.152C165.221 36.096 165.333 36.054 165.445 36.026C165.557 35.97 165.669 35.942 165.781 35.942C166.005 35.942 166.173 36.04 166.285 36.236C166.397 36.404 166.495 36.586 166.579 36.782C166.663 37.034 166.593 37.23 166.369 37.37C165.501 37.93 164.703 38.294 163.975 38.462C163.247 38.63 162.435 38.714 161.539 38.714Z" fill="white"/>
<path fill-rule="evenodd" clip-rule="evenodd" d="M7.79499 7.27749C8.21672 6.9075 8.78325 6.9075 9.20504 7.27749C14.4586 11.8864 16.8403 17.4117 16.9904 25.3389C17.0597 29.1243 16.763 32.5903 15.86 35.5844C14.934 38.5802 13.2871 41.3482 10.8626 43.6856C10.5567 43.9782 10.1553 44.0736 9.78257 43.9422C9.04 43.6804 8.91361 42.5993 8.49999 41.9254C8.08616 42.5997 7.96054 43.6802 7.21741 43.9422C6.84472 44.0736 6.44336 43.9782 6.13745 43.6856C3.71286 41.3482 2.06606 38.5802 1.13994 35.5844C0.237013 32.5903 -0.0596477 29.1243 0.00964549 25.3389C0.159749 17.4117 2.54138 11.8864 7.79499 7.27749ZM10.511 40.2711C12.0282 38.5579 12.9424 36.6884 13.5884 34.5388C14.4012 31.9101 14.6356 29.0069 14.5651 25.4083C14.4481 19.2269 13.2704 15.2042 9.70235 11.4693V22.3941C11.0974 22.8351 11.7239 24.5157 11.7239 26.3668C11.7239 28.2178 11.0974 29.8985 9.70235 30.3394V39.2779C9.70235 39.2779 10.3506 40.012 10.511 40.2711ZM6.46776 40.2711C4.95052 38.5579 4.05764 36.6884 3.41158 34.5388C2.59887 31.9101 2.36438 29.0069 2.4349 25.4083C2.55171 19.2392 3.7233 15.1992 7.2764 11.4693V22.3941C5.88131 22.8351 5.25481 24.5157 5.25481 26.3668C5.25481 28.2178 5.88131 29.8985 7.2764 30.3394V39.2779C7.2764 39.2779 6.62211 40.0215 6.46776 40.2711ZM8.48939 24.3804C7.59616 24.3804 6.87208 25.2697 6.87208 26.3668C6.87208 27.4638 7.59616 28.3531 8.48939 28.3531C9.38253 28.3531 10.1067 27.4638 10.1067 26.3668C10.1067 25.2697 9.38253 24.3804 8.48939 24.3804Z" fill="white"/>
</svg>
